<?xml version="1.0" encoding="UTF-8" standalone="no"?><svg xmlns="http://www.w3.org/2000/svg" xmlns:xlink="http://www.w3.org/1999/xlink" contentScriptType="application/ecmascript" contentStyleType="text/css" height="777px" preserveAspectRatio="none" style="width:1741px;height:777px;" version="1.1" viewBox="0 0 1741 777" width="1741px" zoomAndPan="magnify"><defs><filter height="300%" id="fx6qzf5wmepox" width="300%" x="-1" y="-1"><feGaussianBlur result="blurOut" stdDeviation="2.0"/><feColorMatrix in="blurOut" result="blurOut2" type="matrix" values="0 0 0 0 0 0 0 0 0 0 0 0 0 0 0 0 0 0 .4 0"/><feOffset dx="4.0" dy="4.0" in="blurOut2" result="blurOut3"/><feBlend in="SourceGraphic" in2="blurOut3" mode="normal"/></filter></defs><g><!--cluster Accounts--><polygon fill="#FCF6BD" filter="url(#fx6qzf5wmepox)" points="778,161,849,161,856,183.4883,945,183.4883,945,336,778,336,778,161" style="stroke: #000000; stroke-width: 1.5;"/><line style="stroke: #000000; stroke-width: 1.5;" x1="778" x2="856" y1="183.4883" y2="183.4883"/><text fill="#000000" font-family="sans-serif" font-size="14" font-weight="bold" lengthAdjust="spacingAndGlyphs" textLength="65" x="782" y="176.5352">Accounts</text><!--cluster Builder--><polygon fill="#D0F4DE" filter="url(#fx6qzf5wmepox)" points="199,344,256,344,263,366.4883,1719,366.4883,1719,765,199,765,199,344" style="stroke: #000000; stroke-width: 1.5;"/><line style="stroke: #000000; stroke-width: 1.5;" x1="199" x2="263" y1="366.4883" y2="366.4883"/><text fill="#000000" font-family="sans-serif" font-size="14" font-weight="bold" lengthAdjust="spacingAndGlyphs" textLength="51" x="203" y="359.5352">Builder</text><!--cluster Sources--><polygon fill="#FCF6BD" filter="url(#fx6qzf5wmepox)" points="1356,28,1417,28,1424,50.4883,1523,50.4883,1523,223,1356,223,1356,28" style="stroke: #000000; stroke-width: 1.5;"/><line style="stroke: #000000; stroke-width: 1.5;" x1="1356" x2="1424" y1="50.4883" y2="50.4883"/><text fill="#000000" font-family="sans-serif" font-size="14" font-weight="bold" lengthAdjust="spacingAndGlyphs" textLength="55" x="1360" y="43.5352">Sources</text><!--cluster GoogleCloudBuild--><polygon fill="#FBBD0A" filter="url(#fx6qzf5wmepox)" points="6,16,141,16,148,38.4883,151,38.4883,151,209,6,209,6,16" style="stroke: #000000; stroke-width: 1.5;"/><line style="stroke: #000000; stroke-width: 1.5;" x1="6" x2="148" y1="38.4883" y2="38.4883"/><text fill="#000000" font-family="sans-serif" font-size="14" font-weight="bold" lengthAdjust="spacingAndGlyphs" textLength="129" x="10" y="31.5352">GoogleCloudBuild</text><!--cluster GithubService--><polygon fill="#99DBF3" filter="url(#fx6qzf5wmepox)" points="587.5,106,691.5,106,698.5,128.4883,710.5,128.4883,710.5,299,587.5,299,587.5,106" style="stroke: #000000; stroke-width: 1.5;"/><line style="stroke: #000000; stroke-width: 1.5;" x1="587.5" x2="698.5" y1="128.4883" y2="128.4883"/><text fill="#000000" font-family="sans-serif" font-size="14" font-weight="bold" lengthAdjust="spacingAndGlyphs" textLength="98" x="591.5" y="121.5352">GithubService</text><!--class Accounts.User--><rect fill="#FEFECE" filter="url(#fx6qzf5wmepox)" height="138.6855" id="Accounts.User" style="stroke: #A80036; stroke-width: 1.5;" width="151" x="786" y="188.5"/><ellipse cx="844.25" cy="204.5" fill="#FF7700" rx="11" ry="11" style="stroke: #A80036; stroke-width: 1.0;"/><path d="M843.7334,205.063 Q841.8823,204.3574 841.2266,203.5813 Q840.5708,202.8052 840.5708,201.4937 Q840.5708,199.8086 841.6499,198.8457 Q842.729,197.8828 844.6133,197.8828 Q845.4683,197.8828 846.3232,198.0779 Q847.1782,198.2729 848.0166,198.6548 L848.0166,201.0454 Q847.228,200.4893 846.4146,200.1987 Q845.6011,199.9082 844.8042,199.9082 Q843.916,199.9082 843.4429,200.2651 Q842.9697,200.6221 842.9697,201.2861 Q842.9697,201.8008 843.3142,202.137 Q843.6587,202.4731 844.7544,202.8799 L845.8086,203.2783 Q847.3027,203.8262 848.0083,204.731 Q848.7139,205.6357 848.7139,207.0137 Q848.7139,208.8896 847.6057,209.8152 Q846.4976,210.7407 844.2563,210.7407 Q843.335,210.7407 842.4094,210.5208 Q841.4839,210.3008 840.6206,209.8691 L840.6206,207.3374 Q841.6001,208.0347 842.5173,208.375 Q843.4346,208.7153 844.3311,208.7153 Q845.2358,208.7153 845.7339,208.3044 Q846.2319,207.8936 846.2319,207.1548 Q846.2319,206.5986 845.8999,206.1794 Q845.5679,205.7603 844.937,205.5195 Z "/><text fill="#000000" font-family="sans-serif" font-size="12" lengthAdjust="spacingAndGlyphs" textLength="26" x="864.75" y="209.0352">User</text><line style="stroke: #A80036; stroke-width: 1.5;" x1="787" x2="936" y1="220.5" y2="220.5"/><polygon fill="none" points="797,227.4775,801,231.4775,797,235.4775,793,231.4775" style="stroke: #B38D22; stroke-width: 1.0;"/><text fill="#000000" font-family="sans-serif" font-size="11" lengthAdjust="spacingAndGlyphs" textLength="13" x="806" y="235.1348">id:</text><text fill="#000000" font-family="sans-serif" font-size="11" font-weight="bold" lengthAdjust="spacingAndGlyphs" textLength="25" x="822" y="235.1348">uuid</text><ellipse cx="797" cy="245.4326" fill="none" rx="3" ry="3" style="stroke: #038048; stroke-width: 1.0;"/><text fill="#000000" font-family="sans-serif" font-size="11" lengthAdjust="spacingAndGlyphs" textLength="63" x="806" y="248.0898">inserted_at:</text><text fill="#000000" font-family="sans-serif" font-size="11" font-weight="bold" lengthAdjust="spacingAndGlyphs" textLength="59" x="872" y="248.0898">timestamp</text><ellipse cx="797" cy="258.3877" fill="none" rx="3" ry="3" style="stroke: #038048; stroke-width: 1.0;"/><text fill="#000000" font-family="sans-serif" font-size="11" lengthAdjust="spacingAndGlyphs" textLength="63" x="806" y="261.0449">updated_at:</text><text fill="#000000" font-family="sans-serif" font-size="11" font-weight="bold" lengthAdjust="spacingAndGlyphs" textLength="59" x="872" y="261.0449">timestamp</text><line style="stroke: #A80036; stroke-width: 1.0; stroke-dasharray: 1.0,2.0;" x1="787" x2="936" y1="267.3652" y2="267.3652"/><ellipse cx="797" cy="279.3428" fill="none" rx="3" ry="3" style="stroke: #038048; stroke-width: 1.0;"/><text fill="#000000" font-family="sans-serif" font-size="11" lengthAdjust="spacingAndGlyphs" textLength="81" x="806" y="282">node_id: string</text><ellipse cx="797" cy="292.2979" fill="none" rx="3" ry="3" style="stroke: #038048; stroke-width: 1.0;"/><text fill="#000000" font-family="sans-serif" font-size="11" lengthAdjust="spacingAndGlyphs" textLength="65" x="806" y="294.9551">login: string</text><ellipse cx="797" cy="305.2529" fill="none" rx="3" ry="3" style="stroke: #038048; stroke-width: 1.0;"/><text fill="#000000" font-family="sans-serif" font-size="11" lengthAdjust="spacingAndGlyphs" textLength="83" x="806" y="307.9102">html_url: string</text><ellipse cx="797" cy="318.208" fill="none" rx="3" ry="3" style="stroke: #038048; stroke-width: 1.0;"/><text fill="#000000" font-family="sans-serif" font-size="11" lengthAdjust="spacingAndGlyphs" textLength="92" x="806" y="320.8652">avatar_url: string</text><!--class Builder.Pipeline--><rect fill="#FEFECE" filter="url(#fx6qzf5wmepox)" height="185.5508" id="Builder.Pipeline" style="stroke: #A80036; stroke-width: 1.5;" width="192" x="1111" y="371"/><ellipse cx="1180.25" cy="387" fill="#FF7700" rx="11" ry="11" style="stroke: #A80036; stroke-width: 1.0;"/><path d="M1179.7334,387.563 Q1177.8823,386.8574 1177.2266,386.0813 Q1176.5708,385.3052 1176.5708,383.9937 Q1176.5708,382.3086 1177.6499,381.3457 Q1178.729,380.3828 1180.6133,380.3828 Q1181.4683,380.3828 1182.3232,380.5779 Q1183.1782,380.7729 1184.0166,381.1548 L1184.0166,383.5454 Q1183.228,382.9893 1182.4146,382.6987 Q1181.6011,382.4082 1180.8042,382.4082 Q1179.916,382.4082 1179.4429,382.7651 Q1178.9697,383.1221 1178.9697,383.7861 Q1178.9697,384.3008 1179.3142,384.637 Q1179.6587,384.9731 1180.7544,385.3799 L1181.8086,385.7783 Q1183.3027,386.3262 1184.0083,387.231 Q1184.7139,388.1357 1184.7139,389.5137 Q1184.7139,391.3896 1183.6057,392.3152 Q1182.4976,393.2407 1180.2563,393.2407 Q1179.335,393.2407 1178.4094,393.0208 Q1177.4839,392.8008 1176.6206,392.3691 L1176.6206,389.8374 Q1177.6001,390.5347 1178.5173,390.875 Q1179.4346,391.2153 1180.3311,391.2153 Q1181.2358,391.2153 1181.7339,390.8044 Q1182.2319,390.3936 1182.2319,389.6548 Q1182.2319,389.0986 1181.8999,388.6794 Q1181.5679,388.2603 1180.937,388.0195 Z "/><text fill="#000000" font-family="sans-serif" font-size="12" lengthAdjust="spacingAndGlyphs" textLength="45" x="1200.75" y="391.5352">Pipeline</text><line style="stroke: #A80036; stroke-width: 1.5;" x1="1112" x2="1302" y1="403" y2="403"/><polygon fill="none" points="1122,409.9775,1126,413.9775,1122,417.9775,1118,413.9775" style="stroke: #B38D22; stroke-width: 1.0;"/><text fill="#000000" font-family="sans-serif" font-size="11" lengthAdjust="spacingAndGlyphs" textLength="13" x="1131" y="417.6348">id:</text><text fill="#000000" font-family="sans-serif" font-size="11" font-weight="bold" lengthAdjust="spacingAndGlyphs" textLength="25" x="1147" y="417.6348">uuid</text><ellipse cx="1122" cy="427.9326" fill="none" rx="3" ry="3" style="stroke: #038048; stroke-width: 1.0;"/><text fill="#000000" font-family="sans-serif" font-size="11" lengthAdjust="spacingAndGlyphs" textLength="63" x="1131" y="430.5898">inserted_at:</text><text fill="#000000" font-family="sans-serif" font-size="11" font-weight="bold" lengthAdjust="spacingAndGlyphs" textLength="59" x="1197" y="430.5898">timestamp</text><ellipse cx="1122" cy="440.8877" fill="none" rx="3" ry="3" style="stroke: #038048; stroke-width: 1.0;"/><text fill="#000000" font-family="sans-serif" font-size="11" lengthAdjust="spacingAndGlyphs" textLength="63" x="1131" y="443.5449">updated_at:</text><text fill="#000000" font-family="sans-serif" font-size="11" font-weight="bold" lengthAdjust="spacingAndGlyphs" textLength="59" x="1197" y="443.5449">timestamp</text><line style="stroke: #A80036; stroke-width: 1.0; stroke-dasharray: 1.0,2.0;" x1="1112" x2="1302" y1="449.8652" y2="449.8652"/><ellipse cx="1122" cy="461.8428" fill="#000000" rx="3" ry="3" style="stroke: #000000; stroke-width: 1.0;"/><text fill="#000000" font-family="sans-serif" font-size="11" lengthAdjust="spacingAndGlyphs" textLength="59" x="1131" y="464.5">repository:</text><text fill="#000000" font-family="sans-serif" font-size="11" font-style="italic" lengthAdjust="spacingAndGlyphs" textLength="104" x="1193" y="464.5">Sources.Repository</text><ellipse cx="1122" cy="474.7979" fill="#000000" rx="3" ry="3" style="stroke: #000000; stroke-width: 1.0;"/><text fill="#000000" font-family="sans-serif" font-size="11" lengthAdjust="spacingAndGlyphs" textLength="40" x="1131" y="477.4551">sender:</text><text fill="#000000" font-family="sans-serif" font-size="11" font-style="italic" lengthAdjust="spacingAndGlyphs" textLength="79" x="1174" y="477.4551">Accounts.User</text><ellipse cx="1122" cy="487.7529" fill="#000000" rx="3" ry="3" style="stroke: #000000; stroke-width: 1.0;"/><text fill="#000000" font-family="sans-serif" font-size="11" lengthAdjust="spacingAndGlyphs" textLength="58" x="1131" y="490.4102">from_type:</text><text fill="#000000" font-family="sans-serif" font-size="11" font-style="italic" lengthAdjust="spacingAndGlyphs" textLength="95" x="1192" y="490.4102">PipelineFromType</text><line style="stroke: #A80036; stroke-width: 1.0; stroke-dasharray: 1.0,2.0;" x1="1112" x2="1302" y1="496.7305" y2="496.7305"/><ellipse cx="1122" cy="508.708" fill="none" rx="3" ry="3" style="stroke: #038048; stroke-width: 1.0;"/><text fill="#000000" font-family="sans-serif" font-size="11" lengthAdjust="spacingAndGlyphs" textLength="69" x="1131" y="511.3652">params: map</text><ellipse cx="1122" cy="521.6631" fill="none" rx="3" ry="3" style="stroke: #038048; stroke-width: 1.0;"/><text fill="#000000" font-family="sans-serif" font-size="11" lengthAdjust="spacingAndGlyphs" textLength="75" x="1131" y="524.3203">manifest: map</text><ellipse cx="1122" cy="534.6182" fill="none" rx="3" ry="3" style="stroke: #038048; stroke-width: 1.0;"/><text fill="#000000" font-family="sans-serif" font-size="11" lengthAdjust="spacingAndGlyphs" textLength="149" x="1131" y="537.2754">stages_groups: array.string</text><ellipse cx="1122" cy="547.5732" fill="none" rx="3" ry="3" style="stroke: #038048; stroke-width: 1.0;"/><text fill="#000000" font-family="sans-serif" font-size="11" lengthAdjust="spacingAndGlyphs" textLength="104" x="1131" y="550.2305">stages_errors: map</text><!--class Builder.JobStatus--><rect fill="#FEFECE" filter="url(#fx6qzf5wmepox)" height="138.6855" id="Builder.JobStatus" style="stroke: #A80036; stroke-width: 1.5;" width="140" x="579" y="617.5"/><ellipse cx="618.75" cy="633.5" fill="#EB937F" rx="11" ry="11" style="stroke: #A80036; stroke-width: 1.0;"/><path d="M622.8643,639.5 L615.1445,639.5 L615.1445,627.1069 L622.8643,627.1069 L622.8643,629.2651 L617.5933,629.2651 L617.5933,631.938 L622.3662,631.938 L622.3662,634.0962 L617.5933,634.0962 L617.5933,637.3418 L622.8643,637.3418 Z "/><text fill="#000000" font-family="sans-serif" font-size="12" lengthAdjust="spacingAndGlyphs" textLength="53" x="638.25" y="638.0352">JobStatus</text><line style="stroke: #A80036; stroke-width: 1.5;" x1="580" x2="718" y1="649.5" y2="649.5"/><text fill="#000000" font-family="sans-serif" font-size="11" font-weight="bold" lengthAdjust="spacingAndGlyphs" textLength="25" x="585" y="664.1348">NEW</text><text fill="#000000" font-family="sans-serif" font-size="11" font-weight="bold" lengthAdjust="spacingAndGlyphs" textLength="52" x="585" y="677.0898">RUNNING</text><text fill="#000000" font-family="sans-serif" font-size="11" font-weight="bold" lengthAdjust="spacingAndGlyphs" textLength="113" x="585" y="690.0449">RUNNING_NOTIFIED</text><text fill="#000000" font-family="sans-serif" font-size="11" font-weight="bold" lengthAdjust="spacingAndGlyphs" textLength="40" x="585" y="703">FAILED</text><text fill="#000000" font-family="sans-serif" font-size="11" font-weight="bold" lengthAdjust="spacingAndGlyphs" textLength="101" x="585" y="715.9551">FAILED_NOTIFIED</text><text fill="#000000" font-family="sans-serif" font-size="11" font-weight="bold" lengthAdjust="spacingAndGlyphs" textLength="67" x="585" y="728.9102">CANCELLED</text><text fill="#000000" font-family="sans-serif" font-size="11" font-weight="bold" lengthAdjust="spacingAndGlyphs" textLength="128" x="585" y="741.8652">CANCELLED_NOTIFIED</text><line style="stroke: #A80036; stroke-width: 1.5;" x1="580" x2="718" y1="748.1855" y2="748.1855"/><!--class Builder.WhenType--><rect fill="#FEFECE" filter="url(#fx6qzf5wmepox)" height="73.9102" id="Builder.WhenType" style="stroke: #A80036; stroke-width: 1.5;" width="92" x="1161" y="592"/><ellipse cx="1176" cy="608" fill="#EB937F" rx="11" ry="11" style="stroke: #A80036; stroke-width: 1.0;"/><path d="M1180.1143,614 L1172.3945,614 L1172.3945,601.6069 L1180.1143,601.6069 L1180.1143,603.7651 L1174.8433,603.7651 L1174.8433,606.438 L1179.6162,606.438 L1179.6162,608.5962 L1174.8433,608.5962 L1174.8433,611.8418 L1180.1143,611.8418 Z "/><text fill="#000000" font-family="sans-serif" font-size="12" lengthAdjust="spacingAndGlyphs" textLength="60" x="1190" y="612.5352">WhenType</text><line style="stroke: #A80036; stroke-width: 1.5;" x1="1162" x2="1252" y1="624" y2="624"/><text fill="#000000" font-family="sans-serif" font-size="11" font-weight="bold" lengthAdjust="spacingAndGlyphs" textLength="48" x="1167" y="638.6348">MANUAL</text><text fill="#000000" font-family="sans-serif" font-size="11" font-weight="bold" lengthAdjust="spacingAndGlyphs" textLength="33" x="1167" y="651.5898">AUTO</text><line style="stroke: #A80036; stroke-width: 1.5;" x1="1162" x2="1252" y1="657.9102" y2="657.9102"/><!--class Builder.PipelineFromType--><rect fill="#FEFECE" filter="url(#fx6qzf5wmepox)" height="60.9551" id="Builder.PipelineFromType" style="stroke: #A80036; stroke-width: 1.5;" width="135" x="1576" y="433.5"/><ellipse cx="1591" cy="449.5" fill="#EB937F" rx="11" ry="11" style="stroke: #A80036; stroke-width: 1.0;"/><path d="M1595.1143,455.5 L1587.3945,455.5 L1587.3945,443.1069 L1595.1143,443.1069 L1595.1143,445.2651 L1589.8433,445.2651 L1589.8433,447.938 L1594.6162,447.938 L1594.6162,450.0962 L1589.8433,450.0962 L1589.8433,453.3418 L1595.1143,453.3418 Z "/><text fill="#000000" font-family="sans-serif" font-size="12" lengthAdjust="spacingAndGlyphs" textLength="103" x="1605" y="454.0352">PipelineFromType</text><line style="stroke: #A80036; stroke-width: 1.5;" x1="1577" x2="1710" y1="465.5" y2="465.5"/><text fill="#000000" font-family="sans-serif" font-size="11" font-weight="bold" lengthAdjust="spacingAndGlyphs" textLength="74" x="1582" y="480.1348">PUSH_EVENT</text><line style="stroke: #A80036; stroke-width: 1.5;" x1="1577" x2="1710" y1="486.4551" y2="486.4551"/><!--class Builder.Stage--><rect fill="#FEFECE" filter="url(#fx6qzf5wmepox)" height="211.4609" id="Builder.Stage" style="stroke: #A80036; stroke-width: 1.5;" width="152" x="573" y="371.5"/><ellipse cx="629.25" cy="387.5" fill="#FF7700" rx="11" ry="11" style="stroke: #A80036; stroke-width: 1.0;"/><path d="M628.7334,388.063 Q626.8823,387.3574 626.2266,386.5813 Q625.5708,385.8052 625.5708,384.4937 Q625.5708,382.8086 626.6499,381.8457 Q627.729,380.8828 629.6133,380.8828 Q630.4683,380.8828 631.3232,381.0779 Q632.1782,381.2729 633.0166,381.6548 L633.0166,384.0454 Q632.228,383.4893 631.4146,383.1987 Q630.6011,382.9082 629.8042,382.9082 Q628.916,382.9082 628.4429,383.2651 Q627.9697,383.6221 627.9697,384.2861 Q627.9697,384.8008 628.3142,385.137 Q628.6587,385.4731 629.7544,385.8799 L630.8086,386.2783 Q632.3027,386.8262 633.0083,387.731 Q633.7139,388.6357 633.7139,390.0137 Q633.7139,391.8896 632.6057,392.8152 Q631.4976,393.7407 629.2563,393.7407 Q628.335,393.7407 627.4094,393.5208 Q626.4839,393.3008 625.6206,392.8691 L625.6206,390.3374 Q626.6001,391.0347 627.5173,391.375 Q628.4346,391.7153 629.3311,391.7153 Q630.2358,391.7153 630.7339,391.3044 Q631.2319,390.8936 631.2319,390.1548 Q631.2319,389.5986 630.8999,389.1794 Q630.5679,388.7603 629.937,388.5195 Z "/><text fill="#000000" font-family="sans-serif" font-size="12" lengthAdjust="spacingAndGlyphs" textLength="31" x="649.75" y="392.0352">Stage</text><line style="stroke: #A80036; stroke-width: 1.5;" x1="574" x2="724" y1="403.5" y2="403.5"/><polygon fill="none" points="584,410.4775,588,414.4775,584,418.4775,580,414.4775" style="stroke: #B38D22; stroke-width: 1.0;"/><text fill="#000000" font-family="sans-serif" font-size="11" lengthAdjust="spacingAndGlyphs" textLength="13" x="593" y="418.1348">id:</text><text fill="#000000" font-family="sans-serif" font-size="11" font-weight="bold" lengthAdjust="spacingAndGlyphs" textLength="25" x="609" y="418.1348">uuid</text><ellipse cx="584" cy="428.4326" fill="none" rx="3" ry="3" style="stroke: #038048; stroke-width: 1.0;"/><text fill="#000000" font-family="sans-serif" font-size="11" lengthAdjust="spacingAndGlyphs" textLength="63" x="593" y="431.0898">inserted_at:</text><text fill="#000000" font-family="sans-serif" font-size="11" font-weight="bold" lengthAdjust="spacingAndGlyphs" textLength="59" x="659" y="431.0898">timestamp</text><ellipse cx="584" cy="441.3877" fill="none" rx="3" ry="3" style="stroke: #038048; stroke-width: 1.0;"/><text fill="#000000" font-family="sans-serif" font-size="11" lengthAdjust="spacingAndGlyphs" textLength="63" x="593" y="444.0449">updated_at:</text><text fill="#000000" font-family="sans-serif" font-size="11" font-weight="bold" lengthAdjust="spacingAndGlyphs" textLength="59" x="659" y="444.0449">timestamp</text><line style="stroke: #A80036; stroke-width: 1.0; stroke-dasharray: 1.0,2.0;" x1="574" x2="724" y1="450.3652" y2="450.3652"/><ellipse cx="584" cy="462.3428" fill="#000000" rx="3" ry="3" style="stroke: #000000; stroke-width: 1.0;"/><text fill="#000000" font-family="sans-serif" font-size="11" lengthAdjust="spacingAndGlyphs" textLength="45" x="593" y="465">pipeline:</text><text fill="#000000" font-family="sans-serif" font-size="11" font-style="italic" lengthAdjust="spacingAndGlyphs" textLength="41" x="641" y="465">Pipeline</text><ellipse cx="584" cy="475.2979" fill="#000000" rx="3" ry="3" style="stroke: #000000; stroke-width: 1.0;"/><text fill="#000000" font-family="sans-serif" font-size="11" lengthAdjust="spacingAndGlyphs" textLength="31" x="593" y="477.9551">when:</text><text fill="#000000" font-family="sans-serif" font-size="11" font-style="italic" lengthAdjust="spacingAndGlyphs" textLength="55" x="627" y="477.9551">WhenType</text><line style="stroke: #A80036; stroke-width: 1.0; stroke-dasharray: 1.0,2.0;" x1="574" x2="724" y1="484.2754" y2="484.2754"/><ellipse cx="584" cy="496.2529" fill="none" rx="3" ry="3" style="stroke: #038048; stroke-width: 1.0;"/><text fill="#000000" font-family="sans-serif" font-size="11" lengthAdjust="spacingAndGlyphs" textLength="67" x="593" y="498.9102">name: string</text><ellipse cx="584" cy="509.208" fill="none" rx="3" ry="3" style="stroke: #038048; stroke-width: 1.0;"/><text fill="#000000" font-family="sans-serif" font-size="11" lengthAdjust="spacingAndGlyphs" textLength="106" x="593" y="511.8652">stage_group: string</text><ellipse cx="584" cy="522.1631" fill="none" rx="3" ry="3" style="stroke: #038048; stroke-width: 1.0;"/><text fill="#000000" font-family="sans-serif" font-size="11" lengthAdjust="spacingAndGlyphs" textLength="82" x="593" y="524.8203">except: [string]</text><ellipse cx="584" cy="535.1182" fill="none" rx="3" ry="3" style="stroke: #038048; stroke-width: 1.0;"/><text fill="#000000" font-family="sans-serif" font-size="11" lengthAdjust="spacingAndGlyphs" textLength="69" x="593" y="537.7754">only: [string]</text><ellipse cx="584" cy="548.0732" fill="none" rx="3" ry="3" style="stroke: #038048; stroke-width: 1.0;"/><text fill="#000000" font-family="sans-serif" font-size="11" lengthAdjust="spacingAndGlyphs" textLength="94" x="593" y="550.7305">config_file: string</text><ellipse cx="584" cy="561.0283" fill="none" rx="3" ry="3" style="stroke: #038048; stroke-width: 1.0;"/><text fill="#000000" font-family="sans-serif" font-size="11" lengthAdjust="spacingAndGlyphs" textLength="63" x="593" y="563.6855">config: map</text><ellipse cx="584" cy="573.9834" fill="none" rx="3" ry="3" style="stroke: #038048; stroke-width: 1.0;"/><text fill="#000000" font-family="sans-serif" font-size="11" lengthAdjust="spacingAndGlyphs" textLength="126" x="593" y="576.6406">cloudbuild_extras: map</text><!--class Builder.Job--><rect fill="#FEFECE" filter="url(#fx6qzf5wmepox)" height="120.7754" id="Builder.Job" style="stroke: #A80036; stroke-width: 1.5;" width="243" x="207" y="416.5"/><ellipse cx="314.75" cy="432.5" fill="#FF7700" rx="11" ry="11" style="stroke: #A80036; stroke-width: 1.0;"/><path d="M314.2334,433.063 Q312.3823,432.3574 311.7266,431.5813 Q311.0708,430.8052 311.0708,429.4937 Q311.0708,427.8086 312.1499,426.8457 Q313.229,425.8828 315.1133,425.8828 Q315.9683,425.8828 316.8232,426.0779 Q317.6782,426.2729 318.5166,426.6548 L318.5166,429.0454 Q317.728,428.4893 316.9146,428.1987 Q316.1011,427.9082 315.3042,427.9082 Q314.416,427.9082 313.9429,428.2651 Q313.4697,428.6221 313.4697,429.2861 Q313.4697,429.8008 313.8142,430.137 Q314.1587,430.4731 315.2544,430.8799 L316.3086,431.2783 Q317.8027,431.8262 318.5083,432.731 Q319.2139,433.6357 319.2139,435.0137 Q319.2139,436.8896 318.1057,437.8152 Q316.9976,438.7407 314.7563,438.7407 Q313.835,438.7407 312.9094,438.5208 Q311.9839,438.3008 311.1206,437.8691 L311.1206,435.3374 Q312.1001,436.0347 313.0173,436.375 Q313.9346,436.7153 314.8311,436.7153 Q315.7358,436.7153 316.2339,436.3044 Q316.7319,435.8936 316.7319,435.1548 Q316.7319,434.5986 316.3999,434.1794 Q316.0679,433.7603 315.437,433.5195 Z "/><text fill="#000000" font-family="sans-serif" font-size="12" lengthAdjust="spacingAndGlyphs" textLength="19" x="335.25" y="437.0352">Job</text><line style="stroke: #A80036; stroke-width: 1.5;" x1="208" x2="449" y1="448.5" y2="448.5"/><polygon fill="none" points="218,455.4775,222,459.4775,218,463.4775,214,459.4775" style="stroke: #B38D22; stroke-width: 1.0;"/><text fill="#000000" font-family="sans-serif" font-size="11" lengthAdjust="spacingAndGlyphs" textLength="13" x="227" y="463.1348">id:</text><text fill="#000000" font-family="sans-serif" font-size="11" font-weight="bold" lengthAdjust="spacingAndGlyphs" textLength="25" x="243" y="463.1348">uuid</text><ellipse cx="218" cy="473.4326" fill="none" rx="3" ry="3" style="stroke: #038048; stroke-width: 1.0;"/><text fill="#000000" font-family="sans-serif" font-size="11" lengthAdjust="spacingAndGlyphs" textLength="63" x="227" y="476.0898">inserted_at:</text><text fill="#000000" font-family="sans-serif" font-size="11" font-weight="bold" lengthAdjust="spacingAndGlyphs" textLength="59" x="293" y="476.0898">timestamp</text><ellipse cx="218" cy="486.3877" fill="none" rx="3" ry="3" style="stroke: #038048; stroke-width: 1.0;"/><text fill="#000000" font-family="sans-serif" font-size="11" lengthAdjust="spacingAndGlyphs" textLength="63" x="227" y="489.0449">updated_at:</text><text fill="#000000" font-family="sans-serif" font-size="11" font-weight="bold" lengthAdjust="spacingAndGlyphs" textLength="59" x="293" y="489.0449">timestamp</text><line style="stroke: #A80036; stroke-width: 1.0; stroke-dasharray: 1.0,2.0;" x1="208" x2="449" y1="495.3652" y2="495.3652"/><ellipse cx="218" cy="507.3428" fill="#000000" rx="3" ry="3" style="stroke: #000000; stroke-width: 1.0;"/><text fill="#000000" font-family="sans-serif" font-size="11" lengthAdjust="spacingAndGlyphs" textLength="36" x="227" y="510">status:</text><text fill="#000000" font-family="sans-serif" font-size="11" font-style="italic" lengthAdjust="spacingAndGlyphs" textLength="50" x="266" y="510">JobStatus</text><ellipse cx="218" cy="520.2979" fill="#000000" rx="3" ry="3" style="stroke: #000000; stroke-width: 1.0;"/><text fill="#000000" font-family="sans-serif" font-size="11" lengthAdjust="spacingAndGlyphs" textLength="89" x="227" y="522.9551">gcloud_build_id:</text><text fill="#000000" font-family="sans-serif" font-size="11" font-style="italic" lengthAdjust="spacingAndGlyphs" textLength="125" x="319" y="522.9551">GoogleCloudBuild.Build</text><line style="stroke: #A80036; stroke-width: 1.0; stroke-dasharray: 1.0,2.0;" x1="208" x2="449" y1="529.2754" y2="529.2754"/><!--class Sources.Repository--><rect fill="#FEFECE" filter="url(#fx6qzf5wmepox)" height="159.6406" id="Sources.Repository" style="stroke: #A80036; stroke-width: 1.5;" width="151" x="1364" y="55"/><ellipse cx="1405.1" cy="71" fill="#FF7700" rx="11" ry="11" style="stroke: #A80036; stroke-width: 1.0;"/><path d="M1404.5834,71.563 Q1402.7323,70.8574 1402.0766,70.0813 Q1401.4208,69.3052 1401.4208,67.9937 Q1401.4208,66.3086 1402.4999,65.3457 Q1403.579,64.3828 1405.4633,64.3828 Q1406.3183,64.3828 1407.1732,64.5779 Q1408.0282,64.7729 1408.8666,65.1548 L1408.8666,67.5454 Q1408.078,66.9893 1407.2646,66.6987 Q1406.4511,66.4082 1405.6542,66.4082 Q1404.766,66.4082 1404.2929,66.7651 Q1403.8197,67.1221 1403.8197,67.7861 Q1403.8197,68.3008 1404.1642,68.637 Q1404.5087,68.9731 1405.6044,69.3799 L1406.6586,69.7783 Q1408.1527,70.3262 1408.8583,71.231 Q1409.5639,72.1357 1409.5639,73.5137 Q1409.5639,75.3896 1408.4557,76.3152 Q1407.3476,77.2407 1405.1063,77.2407 Q1404.185,77.2407 1403.2594,77.0208 Q1402.3339,76.8008 1401.4706,76.3691 L1401.4706,73.8374 Q1402.4501,74.5347 1403.3673,74.875 Q1404.2846,75.2153 1405.1811,75.2153 Q1406.0858,75.2153 1406.5839,74.8044 Q1407.0819,74.3936 1407.0819,73.6548 Q1407.0819,73.0986 1406.7499,72.6794 Q1406.4179,72.2603 1405.787,72.0195 Z "/><text fill="#000000" font-family="sans-serif" font-size="12" lengthAdjust="spacingAndGlyphs" textLength="61" x="1424.9" y="75.5352">Repository</text><line style="stroke: #A80036; stroke-width: 1.5;" x1="1365" x2="1514" y1="87" y2="87"/><polygon fill="none" points="1375,93.9775,1379,97.9775,1375,101.9775,1371,97.9775" style="stroke: #B38D22; stroke-width: 1.0;"/><text fill="#000000" font-family="sans-serif" font-size="11" lengthAdjust="spacingAndGlyphs" textLength="13" x="1384" y="101.6348">id:</text><text fill="#000000" font-family="sans-serif" font-size="11" font-weight="bold" lengthAdjust="spacingAndGlyphs" textLength="25" x="1400" y="101.6348">uuid</text><ellipse cx="1375" cy="111.9326" fill="none" rx="3" ry="3" style="stroke: #038048; stroke-width: 1.0;"/><text fill="#000000" font-family="sans-serif" font-size="11" lengthAdjust="spacingAndGlyphs" textLength="63" x="1384" y="114.5898">inserted_at:</text><text fill="#000000" font-family="sans-serif" font-size="11" font-weight="bold" lengthAdjust="spacingAndGlyphs" textLength="59" x="1450" y="114.5898">timestamp</text><ellipse cx="1375" cy="124.8877" fill="none" rx="3" ry="3" style="stroke: #038048; stroke-width: 1.0;"/><text fill="#000000" font-family="sans-serif" font-size="11" lengthAdjust="spacingAndGlyphs" textLength="63" x="1384" y="127.5449">updated_at:</text><text fill="#000000" font-family="sans-serif" font-size="11" font-weight="bold" lengthAdjust="spacingAndGlyphs" textLength="59" x="1450" y="127.5449">timestamp</text><line style="stroke: #A80036; stroke-width: 1.0; stroke-dasharray: 1.0,2.0;" x1="1365" x2="1514" y1="133.8652" y2="133.8652"/><ellipse cx="1375" cy="145.8428" fill="#000000" rx="3" ry="3" style="stroke: #000000; stroke-width: 1.0;"/><text fill="#000000" font-family="sans-serif" font-size="11" lengthAdjust="spacingAndGlyphs" textLength="51" x="1384" y="148.5">pipelines:</text><text fill="#000000" font-family="sans-serif" font-size="11" font-style="italic" lengthAdjust="spacingAndGlyphs" textLength="70" x="1438" y="148.5">Build.Pipeline</text><line style="stroke: #A80036; stroke-width: 1.0; stroke-dasharray: 1.0,2.0;" x1="1365" x2="1514" y1="154.8203" y2="154.8203"/><ellipse cx="1375" cy="166.7979" fill="none" rx="3" ry="3" style="stroke: #038048; stroke-width: 1.0;"/><text fill="#000000" font-family="sans-serif" font-size="11" lengthAdjust="spacingAndGlyphs" textLength="106" x="1384" y="169.4551">gcloud_repo: string</text><ellipse cx="1375" cy="179.7529" fill="none" rx="3" ry="3" style="stroke: #038048; stroke-width: 1.0;"/><text fill="#000000" font-family="sans-serif" font-size="11" lengthAdjust="spacingAndGlyphs" textLength="104" x="1384" y="182.4102">github_repo: string</text><ellipse cx="1375" cy="192.708" fill="none" rx="3" ry="3" style="stroke: #038048; stroke-width: 1.0;"/><text fill="#000000" font-family="sans-serif" font-size="11" lengthAdjust="spacingAndGlyphs" textLength="112" x="1384" y="195.3652">github_secret: string</text><ellipse cx="1375" cy="205.6631" fill="none" rx="3" ry="3" style="stroke: #038048; stroke-width: 1.0;"/><text fill="#000000" font-family="sans-serif" font-size="11" lengthAdjust="spacingAndGlyphs" textLength="109" x="1384" y="208.3203">github_token: string</text><!--class GoogleCloudBuild.Build--><rect fill="#FEFECE" filter="url(#fx6qzf5wmepox)" height="60.9551" id="GoogleCloudBuild.Build" style="stroke: #A80036; stroke-width: 1.5;" width="74" x="41.5" y="139.5"/><ellipse cx="62.8" cy="155.5" fill="#ADD1B2" rx="11" ry="11" style="stroke: #A80036; stroke-width: 1.0;"/><path d="M65.7731,161.1431 Q65.1921,161.4419 64.5529,161.5913 Q63.9138,161.7407 63.2082,161.7407 Q60.7014,161.7407 59.3815,160.0889 Q58.0617,158.437 58.0617,155.3159 Q58.0617,152.1865 59.3815,150.5347 Q60.7014,148.8828 63.2082,148.8828 Q63.9138,148.8828 64.5612,149.0322 Q65.2087,149.1816 65.7731,149.4805 L65.7731,152.2031 Q65.1423,151.6221 64.5488,151.3523 Q63.9553,151.0825 63.3244,151.0825 Q61.9797,151.0825 61.2949,152.1492 Q60.6101,153.2158 60.6101,155.3159 Q60.6101,157.4077 61.2949,158.4744 Q61.9797,159.541 63.3244,159.541 Q63.9553,159.541 64.5488,159.2712 Q65.1423,159.0015 65.7731,158.4204 Z "/><text fill="#000000" font-family="sans-serif" font-size="12" lengthAdjust="spacingAndGlyphs" textLength="28" x="78.2" y="160.0352">Build</text><line style="stroke: #A80036; stroke-width: 1.5;" x1="42.5" x2="114.5" y1="171.5" y2="171.5"/><ellipse cx="52.5" cy="183.4775" fill="none" rx="3" ry="3" style="stroke: #038048; stroke-width: 1.0;"/><text fill="#000000" font-family="sans-serif" font-size="11" lengthAdjust="spacingAndGlyphs" textLength="48" x="61.5" y="186.1348">id: string</text><line style="stroke: #A80036; stroke-width: 1.5;" x1="42.5" x2="114.5" y1="192.4551" y2="192.4551"/><!--class GoogleCloudBuild.Source--><rect fill="#FEFECE" filter="url(#fx6qzf5wmepox)" height="60.9551" id="GoogleCloudBuild.Source" style="stroke: #A80036; stroke-width: 1.5;" width="93" x="32" y="43.5"/><ellipse cx="57.35" cy="59.5" fill="#ADD1B2" rx="11" ry="11" style="stroke: #A80036; stroke-width: 1.0;"/><path d="M60.3231,65.1431 Q59.7421,65.4419 59.1029,65.5913 Q58.4638,65.7407 57.7582,65.7407 Q55.2514,65.7407 53.9315,64.0889 Q52.6117,62.437 52.6117,59.3159 Q52.6117,56.1865 53.9315,54.5347 Q55.2514,52.8828 57.7582,52.8828 Q58.4638,52.8828 59.1112,53.0322 Q59.7587,53.1816 60.3231,53.4805 L60.3231,56.2031 Q59.6923,55.6221 59.0988,55.3523 Q58.5053,55.0825 57.8744,55.0825 Q56.5297,55.0825 55.8449,56.1492 Q55.1601,57.2158 55.1601,59.3159 Q55.1601,61.4077 55.8449,62.4744 Q56.5297,63.541 57.8744,63.541 Q58.5053,63.541 59.0988,63.2712 Q59.6923,63.0015 60.3231,62.4204 Z "/><text fill="#000000" font-family="sans-serif" font-size="12" lengthAdjust="spacingAndGlyphs" textLength="38" x="73.65" y="64.0352">Source</text><line style="stroke: #A80036; stroke-width: 1.5;" x1="33" x2="124" y1="75.5" y2="75.5"/><ellipse cx="43" cy="87.4775" fill="none" rx="3" ry="3" style="stroke: #038048; stroke-width: 1.0;"/><text fill="#000000" font-family="sans-serif" font-size="11" lengthAdjust="spacingAndGlyphs" textLength="67" x="52" y="90.1348">name: string</text><line style="stroke: #A80036; stroke-width: 1.5;" x1="33" x2="124" y1="96.4551" y2="96.4551"/><!--class GithubService.User--><rect fill="#FEFECE" filter="url(#fx6qzf5wmepox)" height="60.9551" id="GithubService.User" style="stroke: #A80036; stroke-width: 1.5;" width="107" x="595.5" y="229.5"/><ellipse cx="632.55" cy="245.5" fill="#ADD1B2" rx="11" ry="11" style="stroke: #A80036; stroke-width: 1.0;"/><path d="M635.5231,251.1431 Q634.9421,251.4419 634.3029,251.5913 Q633.6638,251.7407 632.9582,251.7407 Q630.4514,251.7407 629.1315,250.0889 Q627.8117,248.437 627.8117,245.3159 Q627.8117,242.1865 629.1315,240.5347 Q630.4514,238.8828 632.9582,238.8828 Q633.6638,238.8828 634.3112,239.0322 Q634.9587,239.1816 635.5231,239.4805 L635.5231,242.2031 Q634.8923,241.6221 634.2988,241.3523 Q633.7053,241.0825 633.0744,241.0825 Q631.7297,241.0825 631.0449,242.1492 Q630.3601,243.2158 630.3601,245.3159 Q630.3601,247.4077 631.0449,248.4744 Q631.7297,249.541 633.0744,249.541 Q633.7053,249.541 634.2988,249.2712 Q634.8923,249.0015 635.5231,248.4204 Z "/><text fill="#000000" font-family="sans-serif" font-size="12" lengthAdjust="spacingAndGlyphs" textLength="26" x="651.45" y="250.0352">User</text><line style="stroke: #A80036; stroke-width: 1.5;" x1="596.5" x2="701.5" y1="261.5" y2="261.5"/><ellipse cx="606.5" cy="273.4775" fill="none" rx="3" ry="3" style="stroke: #038048; stroke-width: 1.0;"/><text fill="#000000" font-family="sans-serif" font-size="11" lengthAdjust="spacingAndGlyphs" textLength="81" x="615.5" y="276.1348">node_id: string</text><line style="stroke: #A80036; stroke-width: 1.5;" x1="596.5" x2="701.5" y1="282.4551" y2="282.4551"/><!--class GithubService.Repository--><rect fill="#FEFECE" filter="url(#fx6qzf5wmepox)" height="60.9551" id="GithubService.Repository" style="stroke: #A80036; stroke-width: 1.5;" width="93" x="602.5" y="133.5"/><ellipse cx="617.5" cy="149.5" fill="#ADD1B2" rx="11" ry="11" style="stroke: #A80036; stroke-width: 1.0;"/><path d="M620.4731,155.1431 Q619.8921,155.4419 619.2529,155.5913 Q618.6138,155.7407 617.9082,155.7407 Q615.4014,155.7407 614.0815,154.0889 Q612.7617,152.437 612.7617,149.3159 Q612.7617,146.1865 614.0815,144.5347 Q615.4014,142.8828 617.9082,142.8828 Q618.6138,142.8828 619.2612,143.0322 Q619.9087,143.1816 620.4731,143.4805 L620.4731,146.2031 Q619.8423,145.6221 619.2488,145.3523 Q618.6553,145.0825 618.0244,145.0825 Q616.6797,145.0825 615.9949,146.1492 Q615.3101,147.2158 615.3101,149.3159 Q615.3101,151.4077 615.9949,152.4744 Q616.6797,153.541 618.0244,153.541 Q618.6553,153.541 619.2488,153.2712 Q619.8423,153.0015 620.4731,152.4204 Z "/><text fill="#000000" font-family="sans-serif" font-size="12" lengthAdjust="spacingAndGlyphs" textLength="61" x="631.5" y="154.0352">Repository</text><line style="stroke: #A80036; stroke-width: 1.5;" x1="603.5" x2="694.5" y1="165.5" y2="165.5"/><ellipse cx="613.5" cy="177.4775" fill="none" rx="3" ry="3" style="stroke: #038048; stroke-width: 1.0;"/><text fill="#000000" font-family="sans-serif" font-size="11" lengthAdjust="spacingAndGlyphs" textLength="53" x="622.5" y="180.1348">url: string</text><line style="stroke: #A80036; stroke-width: 1.5;" x1="603.5" x2="694.5" y1="186.4551" y2="186.4551"/><!--class Subtitles--><rect fill="#FEFECE" filter="url(#fx6qzf5wmepox)" height="86.8652" id="Subtitles" style="stroke: #A80036; stroke-width: 1.5;" width="99" x="29" y="235.5"/><ellipse cx="52.55" cy="251.5" fill="#FF7700" rx="11" ry="11" style="stroke: #A80036; stroke-width: 1.0;"/><path d="M48.4777,247.2651 L48.4777,245.1069 L55.8571,245.1069 L55.8571,247.2651 L53.3918,247.2651 L53.3918,255.3418 L55.8571,255.3418 L55.8571,257.5 L48.4777,257.5 L48.4777,255.3418 L50.9431,255.3418 L50.9431,247.2651 Z "/><text fill="#000000" font-family="sans-serif" font-size="12" lengthAdjust="spacingAndGlyphs" textLength="48" x="68.45" y="256.0352">Subtitles</text><line style="stroke: #A80036; stroke-width: 1.5;" x1="30" x2="127" y1="267.5" y2="267.5"/><polygon fill="none" points="40,274.4775,44,278.4775,40,282.4775,36,278.4775" style="stroke: #B38D22; stroke-width: 1.0;"/><text fill="#000000" font-family="sans-serif" font-size="11" lengthAdjust="spacingAndGlyphs" textLength="10" x="49" y="282.1348">id</text><ellipse cx="40" cy="292.4326" fill="none" rx="3" ry="3" style="stroke: #038048; stroke-width: 1.0;"/><text fill="#000000" font-family="sans-serif" font-size="11" lengthAdjust="spacingAndGlyphs" textLength="29" x="49" y="295.0898">fields</text><ellipse cx="40" cy="305.3877" fill="#000000" rx="3" ry="3" style="stroke: #000000; stroke-width: 1.0;"/><text fill="#000000" font-family="sans-serif" font-size="11" lengthAdjust="spacingAndGlyphs" textLength="73" x="49" y="308.0449">relations field</text><line style="stroke: #A80036; stroke-width: 1.5;" x1="30" x2="127" y1="314.3652" y2="314.3652"/><!--link Accounts.User to Builder.Pipeline--><path d="M937.3214,303.2076 C988.3719,333.6458 1056.1198,374.0396 1110.9401,406.7255 " fill="none" id="Accounts.User-Builder.Pipeline" style="stroke: #A80036; stroke-width: 1.0;"/><text fill="#000000" font-family="sans-serif" font-size="13" lengthAdjust="spacingAndGlyphs" textLength="22" x="945.0539" y="320.4981">1..*</text><text fill="#000000" font-family="sans-serif" font-size="13" lengthAdjust="spacingAndGlyphs" textLength="22" x="1081.0779" y="415.6664">0..*</text><!--link Builder.Pipeline to Sources.Repository--><path d="M1273.0033,370.6018 C1307.6404,321.5885 1349.6469,262.147 1382.8007,215.2326 " fill="none" id="Builder.Pipeline-Sources.Repository" style="stroke: #A80036; stroke-width: 1.0;"/><text fill="#000000" font-family="sans-serif" font-size="13" lengthAdjust="spacingAndGlyphs" textLength="22" x="1255.3864" y="360.1601">1..*</text><text fill="#000000" font-family="sans-serif" font-size="13" lengthAdjust="spacingAndGlyphs" textLength="22" x="1355.1944" y="235.0941">0..*</text><!--link Builder.Pipeline to Builder.PipelineFromType--><path d="M1303.0618,464 C1383.7092,464 1497.1985,464 1570.5547,464 " fill="none" id="Builder.Pipeline-Builder.PipelineFromType" style="stroke: #A80036; stroke-width: 1.0;"/><rect fill="#FFFFFF" height="10" style="stroke: #A80036; stroke-width: 1.5;" width="10" x="1570.766" y="459"/><!--link Builder.Stage to Builder.Pipeline--><path d="M725.1261,475.2265 C825.3323,472.8919 1001.5436,468.7866 1110.8482,466.2401 " fill="none" id="Builder.Stage-Builder.Pipeline" style="stroke: #A80036; stroke-width: 1.0;"/><text fill="#000000" font-family="sans-serif" font-size="13" lengthAdjust="spacingAndGlyphs" textLength="22" x="732.8858" y="488.2982">1..*</text><text fill="#000000" font-family="sans-serif" font-size="13" lengthAdjust="spacingAndGlyphs" textLength="22" x="1080.9792" y="479.5516">0..*</text><!--link Builder.Stage to Builder.WhenType--><path d="M725.1261,497.7369 C840.6791,529.2137 1057.3005,588.2216 1155.8473,615.0659 " fill="none" id="Builder.Stage-Builder.WhenType" style="stroke: #A80036; stroke-width: 1.0;"/><rect fill="#FFFFFF" height="10" style="stroke: #A80036; stroke-width: 1.5;" width="10" x="1155.7363" y="611.3977"/><!--link Builder.Job to Builder.JobStatus--><path d="M421.2019,537.7407 C469.9164,569.6597 528.8245,608.2578 574.5313,638.2061 " fill="none" id="Builder.Job-Builder.JobStatus" style="stroke: #A80036; stroke-width: 1.0;"/><rect fill="#FFFFFF" height="10" style="stroke: #A80036; stroke-width: 1.5;" width="10" x="573.9125" y="636.0769"/><!--link Builder.Job to Builder.Stage--><path d="M450.1243,477 C491.3849,477 536.2783,477 572.9531,477 " fill="none" id="Builder.Job-Builder.Stage" style="stroke: #A80036; stroke-width: 1.0;"/><text fill="#000000" font-family="sans-serif" font-size="13" lengthAdjust="spacingAndGlyphs" textLength="22" x="458.2061" y="490.0417">1..*</text><text fill="#000000" font-family="sans-serif" font-size="13" lengthAdjust="spacingAndGlyphs" textLength="22" x="542.9285" y="490.2528">0..*</text><!--link GoogleCloudBuild.Build to Builder.Job--><path d="M119.8491,193.4335 C130.6249,200.5609 141.7867,208.9329 151,218 C211.5128,277.5524 264.0952,360.5101 295.9982,416.3504 " fill="none" id="GoogleCloudBuild.Build-Builder.Job" style="stroke: #A80036; stroke-width: 1.0;"/><polygon fill="#A80036" points="115.5838,190.6623,120.9515,198.9199,119.7766,193.3864,125.3101,192.2114,115.5838,190.6623" style="stroke: #A80036; stroke-width: 1.0;"/><!--link GoogleCloudBuild.Source to Sources.Repository--><path d="M130.1131,70.4025 C180.6439,67.1939 259.8263,63 328.5,63 C328.5,63 328.5,63 1207,63 C1261.0874,63 1319.2124,81 1363.8155,99 " fill="none" id="GoogleCloudBuild.Source-Sources.Repository" style="stroke: #A80036; stroke-width: 1.0;"/><polygon fill="#A80036" points="125.0099,70.7294,134.2473,74.1457,129.9997,70.4097,133.7357,66.1621,125.0099,70.7294" style="stroke: #A80036; stroke-width: 1.0;"/><text fill="#000000" font-family="sans-serif" font-size="13" lengthAdjust="spacingAndGlyphs" textLength="114" x="592" y="59.5684">field: gcloud_repo</text><!--link GithubService.User to Accounts.User--><path d="M707.7116,259.4474 C731.8643,259.2201 760.1457,258.9539 785.823,258.7123 " fill="none" id="GithubService.User-Accounts.User" style="stroke: #A80036; stroke-width: 1.0;"/><polygon fill="#A80036" points="702.6227,259.4953,711.66,263.4103,707.6225,259.4482,711.5846,255.4106,702.6227,259.4953" style="stroke: #A80036; stroke-width: 1.0;"/><!--link GithubService.Repository to Sources.Repository--><path d="M700.8212,160.9395 C724.3683,159.6128 752.5852,158.112 778,157 C990.2317,147.7136 1240.9194,140.3663 1363.8352,137.0005 " fill="none" id="GithubService.Repository-Sources.Repository" style="stroke: #A80036; stroke-width: 1.0;"/><polygon fill="#A80036" points="695.5619,161.2373,704.7737,164.722,700.5539,160.9546,704.3213,156.7348,695.5619,161.2373" style="stroke: #A80036; stroke-width: 1.0;"/><text fill="#000000" font-family="sans-serif" font-size="13" lengthAdjust="spacingAndGlyphs" textLength="112" x="968" y="142.5684">field: github_repo</text><!--
@startuml
left to right direction

class Subtitles << (I,#FF7700) >> {
  #id
  +fields
  *relations field
}

namespace Accounts #FCF6BD {
  class User << (S,#FF7700) >> {
    #id: <b>uuid</b>
    +inserted_at: <b>timestamp</b>
    +updated_at: <b>timestamp</b>
    ..
    +node_id: string
    +login: string
    +html_url: string
    +avatar_url: string
  }

  User "1..*" - - "0..*" Builder.Pipeline
}

namespace Sources #FCF6BD {
  class Repository << (S,#FF7700) >> {
    #id: <b>uuid</b>
    +inserted_at: <b>timestamp</b>
    +updated_at: <b>timestamp</b>
    ..
    *pipelines: <i>Build.Pipeline</i>
    ..
    +gcloud_repo: string
    +github_repo: string
    +github_secret: string
    +github_token: string
  }
}


namespace Builder #D0F4DE {
  enum JobStatus {
    <b>NEW</b>
    <b>RUNNING</b>
    <b>RUNNING_NOTIFIED</b>
    <b>FAILED</b>
    <b>FAILED_NOTIFIED</b>
    <b>CANCELLED</b>
    <b>CANCELLED_NOTIFIED</b>
  }

  enum WhenType {
    <b>MANUAL</b>
    <b>AUTO</b>
  }

  enum PipelineFromType {
    <b>PUSH_EVENT</b>
  }

  class Pipeline << (S,#FF7700) >> {
    #id: <b>uuid</b>
    +inserted_at: <b>timestamp</b>
    +updated_at: <b>timestamp</b>
    ..
    *repository: <i>Sources.Repository</i>
    *sender: <i>Accounts.User</i>
    *from_type: <i>PipelineFromType</i>
    ..
    +params: map
    +manifest: map
    +stages_groups: array.string
    +stages_errors: map
  }

  Pipeline "1..*" - - "0..*" Sources.Repository
  Pipeline - -# PipelineFromType

  class Stage << (S,#FF7700) >> {
    #id: <b>uuid</b>
    +inserted_at: <b>timestamp</b>
    +updated_at: <b>timestamp</b>
    ..
    *pipeline: <i>Pipeline</i>
    *when: <i>WhenType</i>
    ..
    +name: string
    +stage_group: string
    +except: [string]
    +only: [string]
    +config_file: string
    +config: map
    +cloudbuild_extras: map
  }

  Stage "1..*" - - "0..*" Pipeline
  Stage - -# WhenType

  class Job << (S,#FF7700) >> {
    #id: <b>uuid</b>
    +inserted_at: <b>timestamp</b>
    +updated_at: <b>timestamp</b>
    ..
    *status: <i>JobStatus</i>
    *gcloud_build_id: <i>GoogleCloudBuild.Build</i>
    ..
  }

  Job - -# JobStatus
  Job "1..*" - - "0..*" Stage
}

namespace GoogleCloudBuild #FBBD0A {
  class Build {
    +id: string
  }

  class Source {
    +name: string
  }

  Build <- - Builder.Job
  Source <- - Sources.Repository : "field: gcloud_repo"
}

namespace GithubService #99DBF3 {
  class User {
    +node_id: string
  }

  class Repository {
    +url: string
  }

  User <- - Accounts.User
  Repository <- - Sources.Repository : "field: github_repo"
}
@enduml

PlantUML version 1.2018.10(Sat Aug 25 14:02:59 BRT 2018)
(GPL source distribution)
Java Runtime: Java(TM) SE Runtime Environment
JVM: Java HotSpot(TM) 64-Bit Server VM
Java Version: 10.0.1+10
Operating System: Mac OS X
OS Version: 10.13.6
Default Encoding: UTF-8
Language: en
Country: BR
--></g></svg>