<?xml version="1.0" encoding="UTF-8" standalone="no"?><svg xmlns="http://www.w3.org/2000/svg" xmlns:xlink="http://www.w3.org/1999/xlink" contentScriptType="application/ecmascript" contentStyleType="text/css" height="806px" preserveAspectRatio="none" style="width:1750px;height:806px;" version="1.1" viewBox="0 0 1750 806" width="1750px" zoomAndPan="magnify"><defs><filter height="300%" id="f1shflytb66l67" width="300%" x="-1" y="-1"><feGaussianBlur result="blurOut" stdDeviation="2.0"/><feColorMatrix in="blurOut" result="blurOut2" type="matrix" values="0 0 0 0 0 0 0 0 0 0 0 0 0 0 0 0 0 0 .4 0"/><feOffset dx="4.0" dy="4.0" in="blurOut2" result="blurOut3"/><feBlend in="SourceGraphic" in2="blurOut3" mode="normal"/></filter></defs><g><!--cluster Accounts--><polygon fill="#FCF6BD" filter="url(#f1shflytb66l67)" points="777,164,848,164,855,186.4883,944,186.4883,944,339,777,339,777,164" style="stroke: #000000; stroke-width: 1.5;"/><line style="stroke: #000000; stroke-width: 1.5;" x1="777" x2="855" y1="186.4883" y2="186.4883"/><text fill="#000000" font-family="sans-serif" font-size="14" font-weight="bold" lengthAdjust="spacingAndGlyphs" textLength="65" x="781" y="179.5352">Accounts</text><!--cluster Builder--><polygon fill="#D0F4DE" filter="url(#f1shflytb66l67)" points="199,347,256,347,263,369.4883,1728,369.4883,1728,794,199,794,199,347" style="stroke: #000000; stroke-width: 1.5;"/><line style="stroke: #000000; stroke-width: 1.5;" x1="199" x2="263" y1="369.4883" y2="369.4883"/><text fill="#000000" font-family="sans-serif" font-size="14" font-weight="bold" lengthAdjust="spacingAndGlyphs" textLength="51" x="203" y="362.5352">Builder</text><!--cluster Sources--><polygon fill="#FCF6BD" filter="url(#f1shflytb66l67)" points="1355,24,1416,24,1423,46.4883,1532,46.4883,1532,233,1355,233,1355,24" style="stroke: #000000; stroke-width: 1.5;"/><line style="stroke: #000000; stroke-width: 1.5;" x1="1355" x2="1423" y1="46.4883" y2="46.4883"/><text fill="#000000" font-family="sans-serif" font-size="14" font-weight="bold" lengthAdjust="spacingAndGlyphs" textLength="55" x="1359" y="39.5352">Sources</text><!--cluster GoogleCloudBuild--><polygon fill="#FBBD0A" filter="url(#f1shflytb66l67)" points="6,16,141,16,148,38.4883,151,38.4883,151,209,6,209,6,16" style="stroke: #000000; stroke-width: 1.5;"/><line style="stroke: #000000; stroke-width: 1.5;" x1="6" x2="148" y1="38.4883" y2="38.4883"/><text fill="#000000" font-family="sans-serif" font-size="14" font-weight="bold" lengthAdjust="spacingAndGlyphs" textLength="129" x="10" y="31.5352">GoogleCloudBuild</text><!--cluster GithubService--><polygon fill="#99DBF3" filter="url(#f1shflytb66l67)" points="587,109,691,109,698,131.4883,710,131.4883,710,302,587,302,587,109" style="stroke: #000000; stroke-width: 1.5;"/><line style="stroke: #000000; stroke-width: 1.5;" x1="587" x2="698" y1="131.4883" y2="131.4883"/><text fill="#000000" font-family="sans-serif" font-size="14" font-weight="bold" lengthAdjust="spacingAndGlyphs" textLength="98" x="591" y="124.5352">GithubService</text><!--class Accounts.User--><rect fill="#FEFECE" filter="url(#f1shflytb66l67)" height="138.6855" id="Accounts.User" style="stroke: #A80036; stroke-width: 1.5;" width="151" x="785" y="191.5"/><ellipse cx="843.25" cy="207.5" fill="#FF7700" rx="11" ry="11" style="stroke: #A80036; stroke-width: 1.0;"/><path d="M842.7334,208.063 Q840.8823,207.3574 840.2266,206.5813 Q839.5708,205.8052 839.5708,204.4937 Q839.5708,202.8086 840.6499,201.8457 Q841.729,200.8828 843.6133,200.8828 Q844.4683,200.8828 845.3232,201.0779 Q846.1782,201.2729 847.0166,201.6548 L847.0166,204.0454 Q846.228,203.4893 845.4146,203.1987 Q844.6011,202.9082 843.8042,202.9082 Q842.916,202.9082 842.4429,203.2651 Q841.9697,203.6221 841.9697,204.2861 Q841.9697,204.8008 842.3142,205.137 Q842.6587,205.4731 843.7544,205.8799 L844.8086,206.2783 Q846.3027,206.8262 847.0083,207.731 Q847.7139,208.6357 847.7139,210.0137 Q847.7139,211.8896 846.6057,212.8152 Q845.4976,213.7407 843.2563,213.7407 Q842.335,213.7407 841.4094,213.5208 Q840.4839,213.3008 839.6206,212.8691 L839.6206,210.3374 Q840.6001,211.0347 841.5173,211.375 Q842.4346,211.7153 843.3311,211.7153 Q844.2358,211.7153 844.7339,211.3044 Q845.2319,210.8936 845.2319,210.1548 Q845.2319,209.5986 844.8999,209.1794 Q844.5679,208.7603 843.937,208.5195 Z "/><text fill="#000000" font-family="sans-serif" font-size="12" lengthAdjust="spacingAndGlyphs" textLength="26" x="863.75" y="212.0352">User</text><line style="stroke: #A80036; stroke-width: 1.5;" x1="786" x2="935" y1="223.5" y2="223.5"/><polygon fill="none" points="796,230.4775,800,234.4775,796,238.4775,792,234.4775" style="stroke: #B38D22; stroke-width: 1.0;"/><text fill="#000000" font-family="sans-serif" font-size="11" lengthAdjust="spacingAndGlyphs" textLength="13" x="805" y="238.1348">id:</text><text fill="#000000" font-family="sans-serif" font-size="11" font-weight="bold" lengthAdjust="spacingAndGlyphs" textLength="25" x="821" y="238.1348">uuid</text><ellipse cx="796" cy="248.4326" fill="none" rx="3" ry="3" style="stroke: #038048; stroke-width: 1.0;"/><text fill="#000000" font-family="sans-serif" font-size="11" lengthAdjust="spacingAndGlyphs" textLength="63" x="805" y="251.0898">inserted_at:</text><text fill="#000000" font-family="sans-serif" font-size="11" font-weight="bold" lengthAdjust="spacingAndGlyphs" textLength="59" x="871" y="251.0898">timestamp</text><ellipse cx="796" cy="261.3877" fill="none" rx="3" ry="3" style="stroke: #038048; stroke-width: 1.0;"/><text fill="#000000" font-family="sans-serif" font-size="11" lengthAdjust="spacingAndGlyphs" textLength="63" x="805" y="264.0449">updated_at:</text><text fill="#000000" font-family="sans-serif" font-size="11" font-weight="bold" lengthAdjust="spacingAndGlyphs" textLength="59" x="871" y="264.0449">timestamp</text><line style="stroke: #A80036; stroke-width: 1.0; stroke-dasharray: 1.0,2.0;" x1="786" x2="935" y1="270.3652" y2="270.3652"/><ellipse cx="796" cy="282.3428" fill="none" rx="3" ry="3" style="stroke: #038048; stroke-width: 1.0;"/><text fill="#000000" font-family="sans-serif" font-size="11" lengthAdjust="spacingAndGlyphs" textLength="81" x="805" y="285">node_id: string</text><ellipse cx="796" cy="295.2979" fill="none" rx="3" ry="3" style="stroke: #038048; stroke-width: 1.0;"/><text fill="#000000" font-family="sans-serif" font-size="11" lengthAdjust="spacingAndGlyphs" textLength="65" x="805" y="297.9551">login: string</text><ellipse cx="796" cy="308.2529" fill="none" rx="3" ry="3" style="stroke: #038048; stroke-width: 1.0;"/><text fill="#000000" font-family="sans-serif" font-size="11" lengthAdjust="spacingAndGlyphs" textLength="83" x="805" y="310.9102">html_url: string</text><ellipse cx="796" cy="321.208" fill="none" rx="3" ry="3" style="stroke: #038048; stroke-width: 1.0;"/><text fill="#000000" font-family="sans-serif" font-size="11" lengthAdjust="spacingAndGlyphs" textLength="92" x="805" y="323.8652">avatar_url: string</text><!--class Builder.Pipeline--><rect fill="#FEFECE" filter="url(#f1shflytb66l67)" height="185.5508" id="Builder.Pipeline" style="stroke: #A80036; stroke-width: 1.5;" width="192" x="1110" y="374"/><ellipse cx="1179.25" cy="390" fill="#FF7700" rx="11" ry="11" style="stroke: #A80036; stroke-width: 1.0;"/><path d="M1178.7334,390.563 Q1176.8823,389.8574 1176.2266,389.0813 Q1175.5708,388.3052 1175.5708,386.9937 Q1175.5708,385.3086 1176.6499,384.3457 Q1177.729,383.3828 1179.6133,383.3828 Q1180.4683,383.3828 1181.3232,383.5779 Q1182.1782,383.7729 1183.0166,384.1548 L1183.0166,386.5454 Q1182.228,385.9893 1181.4146,385.6987 Q1180.6011,385.4082 1179.8042,385.4082 Q1178.916,385.4082 1178.4429,385.7651 Q1177.9697,386.1221 1177.9697,386.7861 Q1177.9697,387.3008 1178.3142,387.637 Q1178.6587,387.9731 1179.7544,388.3799 L1180.8086,388.7783 Q1182.3027,389.3262 1183.0083,390.231 Q1183.7139,391.1357 1183.7139,392.5137 Q1183.7139,394.3896 1182.6057,395.3152 Q1181.4976,396.2407 1179.2563,396.2407 Q1178.335,396.2407 1177.4094,396.0208 Q1176.4839,395.8008 1175.6206,395.3691 L1175.6206,392.8374 Q1176.6001,393.5347 1177.5173,393.875 Q1178.4346,394.2153 1179.3311,394.2153 Q1180.2358,394.2153 1180.7339,393.8044 Q1181.2319,393.3936 1181.2319,392.6548 Q1181.2319,392.0986 1180.8999,391.6794 Q1180.5679,391.2603 1179.937,391.0195 Z "/><text fill="#000000" font-family="sans-serif" font-size="12" lengthAdjust="spacingAndGlyphs" textLength="45" x="1199.75" y="394.5352">Pipeline</text><line style="stroke: #A80036; stroke-width: 1.5;" x1="1111" x2="1301" y1="406" y2="406"/><polygon fill="none" points="1121,412.9775,1125,416.9775,1121,420.9775,1117,416.9775" style="stroke: #B38D22; stroke-width: 1.0;"/><text fill="#000000" font-family="sans-serif" font-size="11" lengthAdjust="spacingAndGlyphs" textLength="13" x="1130" y="420.6348">id:</text><text fill="#000000" font-family="sans-serif" font-size="11" font-weight="bold" lengthAdjust="spacingAndGlyphs" textLength="25" x="1146" y="420.6348">uuid</text><ellipse cx="1121" cy="430.9326" fill="none" rx="3" ry="3" style="stroke: #038048; stroke-width: 1.0;"/><text fill="#000000" font-family="sans-serif" font-size="11" lengthAdjust="spacingAndGlyphs" textLength="63" x="1130" y="433.5898">inserted_at:</text><text fill="#000000" font-family="sans-serif" font-size="11" font-weight="bold" lengthAdjust="spacingAndGlyphs" textLength="59" x="1196" y="433.5898">timestamp</text><ellipse cx="1121" cy="443.8877" fill="none" rx="3" ry="3" style="stroke: #038048; stroke-width: 1.0;"/><text fill="#000000" font-family="sans-serif" font-size="11" lengthAdjust="spacingAndGlyphs" textLength="63" x="1130" y="446.5449">updated_at:</text><text fill="#000000" font-family="sans-serif" font-size="11" font-weight="bold" lengthAdjust="spacingAndGlyphs" textLength="59" x="1196" y="446.5449">timestamp</text><line style="stroke: #A80036; stroke-width: 1.0; stroke-dasharray: 1.0,2.0;" x1="1111" x2="1301" y1="452.8652" y2="452.8652"/><ellipse cx="1121" cy="464.8428" fill="#000000" rx="3" ry="3" style="stroke: #000000; stroke-width: 1.0;"/><text fill="#000000" font-family="sans-serif" font-size="11" lengthAdjust="spacingAndGlyphs" textLength="59" x="1130" y="467.5">repository:</text><text fill="#000000" font-family="sans-serif" font-size="11" font-style="italic" lengthAdjust="spacingAndGlyphs" textLength="104" x="1192" y="467.5">Sources.Repository</text><ellipse cx="1121" cy="477.7979" fill="#000000" rx="3" ry="3" style="stroke: #000000; stroke-width: 1.0;"/><text fill="#000000" font-family="sans-serif" font-size="11" lengthAdjust="spacingAndGlyphs" textLength="40" x="1130" y="480.4551">sender:</text><text fill="#000000" font-family="sans-serif" font-size="11" font-style="italic" lengthAdjust="spacingAndGlyphs" textLength="79" x="1173" y="480.4551">Accounts.User</text><ellipse cx="1121" cy="490.7529" fill="#000000" rx="3" ry="3" style="stroke: #000000; stroke-width: 1.0;"/><text fill="#000000" font-family="sans-serif" font-size="11" lengthAdjust="spacingAndGlyphs" textLength="58" x="1130" y="493.4102">from_type:</text><text fill="#000000" font-family="sans-serif" font-size="11" font-style="italic" lengthAdjust="spacingAndGlyphs" textLength="95" x="1191" y="493.4102">PipelineFromType</text><line style="stroke: #A80036; stroke-width: 1.0; stroke-dasharray: 1.0,2.0;" x1="1111" x2="1301" y1="499.7305" y2="499.7305"/><ellipse cx="1121" cy="511.708" fill="none" rx="3" ry="3" style="stroke: #038048; stroke-width: 1.0;"/><text fill="#000000" font-family="sans-serif" font-size="11" lengthAdjust="spacingAndGlyphs" textLength="69" x="1130" y="514.3652">params: map</text><ellipse cx="1121" cy="524.6631" fill="none" rx="3" ry="3" style="stroke: #038048; stroke-width: 1.0;"/><text fill="#000000" font-family="sans-serif" font-size="11" lengthAdjust="spacingAndGlyphs" textLength="75" x="1130" y="527.3203">manifest: map</text><ellipse cx="1121" cy="537.6182" fill="none" rx="3" ry="3" style="stroke: #038048; stroke-width: 1.0;"/><text fill="#000000" font-family="sans-serif" font-size="11" lengthAdjust="spacingAndGlyphs" textLength="149" x="1130" y="540.2754">stages_groups: array.string</text><ellipse cx="1121" cy="550.5732" fill="none" rx="3" ry="3" style="stroke: #038048; stroke-width: 1.0;"/><text fill="#000000" font-family="sans-serif" font-size="11" lengthAdjust="spacingAndGlyphs" textLength="104" x="1130" y="553.2305">stages_errors: map</text><!--class Builder.JobStatus--><rect fill="#FEFECE" filter="url(#f1shflytb66l67)" height="164.5957" id="Builder.JobStatus" style="stroke: #A80036; stroke-width: 1.5;" width="140" x="578.5" y="620.5"/><ellipse cx="618.25" cy="636.5" fill="#EB937F" rx="11" ry="11" style="stroke: #A80036; stroke-width: 1.0;"/><path d="M622.3643,642.5 L614.6445,642.5 L614.6445,630.1069 L622.3643,630.1069 L622.3643,632.2651 L617.0933,632.2651 L617.0933,634.938 L621.8662,634.938 L621.8662,637.0962 L617.0933,637.0962 L617.0933,640.3418 L622.3643,640.3418 Z "/><text fill="#000000" font-family="sans-serif" font-size="12" lengthAdjust="spacingAndGlyphs" textLength="53" x="637.75" y="641.0352">JobStatus</text><line style="stroke: #A80036; stroke-width: 1.5;" x1="579.5" x2="717.5" y1="652.5" y2="652.5"/><text fill="#000000" font-family="sans-serif" font-size="11" font-weight="bold" lengthAdjust="spacingAndGlyphs" textLength="25" x="584.5" y="667.1348">NEW</text><text fill="#000000" font-family="sans-serif" font-size="11" font-weight="bold" lengthAdjust="spacingAndGlyphs" textLength="52" x="584.5" y="680.0898">RUNNING</text><text fill="#000000" font-family="sans-serif" font-size="11" font-weight="bold" lengthAdjust="spacingAndGlyphs" textLength="113" x="584.5" y="693.0449">RUNNING_NOTIFIED</text><text fill="#000000" font-family="sans-serif" font-size="11" font-weight="bold" lengthAdjust="spacingAndGlyphs" textLength="40" x="584.5" y="706">FAILED</text><text fill="#000000" font-family="sans-serif" font-size="11" font-weight="bold" lengthAdjust="spacingAndGlyphs" textLength="101" x="584.5" y="718.9551">FAILED_NOTIFIED</text><text fill="#000000" font-family="sans-serif" font-size="11" font-weight="bold" lengthAdjust="spacingAndGlyphs" textLength="67" x="584.5" y="731.9102">CANCELLED</text><text fill="#000000" font-family="sans-serif" font-size="11" font-weight="bold" lengthAdjust="spacingAndGlyphs" textLength="128" x="584.5" y="744.8652">CANCELLED_NOTIFIED</text><text fill="#000000" font-family="sans-serif" font-size="11" font-weight="bold" lengthAdjust="spacingAndGlyphs" textLength="49" x="584.5" y="757.8203">SUCCESS</text><text fill="#000000" font-family="sans-serif" font-size="11" font-weight="bold" lengthAdjust="spacingAndGlyphs" textLength="110" x="584.5" y="770.7754">SUCCESS_NOTIFIED</text><line style="stroke: #A80036; stroke-width: 1.5;" x1="579.5" x2="717.5" y1="777.0957" y2="777.0957"/><!--class Builder.WhenType--><rect fill="#FEFECE" filter="url(#f1shflytb66l67)" height="73.9102" id="Builder.WhenType" style="stroke: #A80036; stroke-width: 1.5;" width="92" x="1160" y="595"/><ellipse cx="1175" cy="611" fill="#EB937F" rx="11" ry="11" style="stroke: #A80036; stroke-width: 1.0;"/><path d="M1179.1143,617 L1171.3945,617 L1171.3945,604.6069 L1179.1143,604.6069 L1179.1143,606.7651 L1173.8433,606.7651 L1173.8433,609.438 L1178.6162,609.438 L1178.6162,611.5962 L1173.8433,611.5962 L1173.8433,614.8418 L1179.1143,614.8418 Z "/><text fill="#000000" font-family="sans-serif" font-size="12" lengthAdjust="spacingAndGlyphs" textLength="60" x="1189" y="615.5352">WhenType</text><line style="stroke: #A80036; stroke-width: 1.5;" x1="1161" x2="1251" y1="627" y2="627"/><text fill="#000000" font-family="sans-serif" font-size="11" font-weight="bold" lengthAdjust="spacingAndGlyphs" textLength="48" x="1166" y="641.6348">MANUAL</text><text fill="#000000" font-family="sans-serif" font-size="11" font-weight="bold" lengthAdjust="spacingAndGlyphs" textLength="33" x="1166" y="654.5898">AUTO</text><line style="stroke: #A80036; stroke-width: 1.5;" x1="1161" x2="1251" y1="660.9102" y2="660.9102"/><!--class Builder.PipelineFromType--><rect fill="#FEFECE" filter="url(#f1shflytb66l67)" height="60.9551" id="Builder.PipelineFromType" style="stroke: #A80036; stroke-width: 1.5;" width="135" x="1585" y="436.5"/><ellipse cx="1600" cy="452.5" fill="#EB937F" rx="11" ry="11" style="stroke: #A80036; stroke-width: 1.0;"/><path d="M1604.1143,458.5 L1596.3945,458.5 L1596.3945,446.1069 L1604.1143,446.1069 L1604.1143,448.2651 L1598.8433,448.2651 L1598.8433,450.938 L1603.6162,450.938 L1603.6162,453.0962 L1598.8433,453.0962 L1598.8433,456.3418 L1604.1143,456.3418 Z "/><text fill="#000000" font-family="sans-serif" font-size="12" lengthAdjust="spacingAndGlyphs" textLength="103" x="1614" y="457.0352">PipelineFromType</text><line style="stroke: #A80036; stroke-width: 1.5;" x1="1586" x2="1719" y1="468.5" y2="468.5"/><text fill="#000000" font-family="sans-serif" font-size="11" font-weight="bold" lengthAdjust="spacingAndGlyphs" textLength="74" x="1591" y="483.1348">PUSH_EVENT</text><line style="stroke: #A80036; stroke-width: 1.5;" x1="1586" x2="1719" y1="489.4551" y2="489.4551"/><!--class Builder.Stage--><rect fill="#FEFECE" filter="url(#f1shflytb66l67)" height="211.4609" id="Builder.Stage" style="stroke: #A80036; stroke-width: 1.5;" width="151" x="573" y="374.5"/><ellipse cx="628.75" cy="390.5" fill="#FF7700" rx="11" ry="11" style="stroke: #A80036; stroke-width: 1.0;"/><path d="M628.2334,391.063 Q626.3823,390.3574 625.7266,389.5813 Q625.0708,388.8052 625.0708,387.4937 Q625.0708,385.8086 626.1499,384.8457 Q627.229,383.8828 629.1133,383.8828 Q629.9683,383.8828 630.8232,384.0779 Q631.6782,384.2729 632.5166,384.6548 L632.5166,387.0454 Q631.728,386.4893 630.9146,386.1987 Q630.1011,385.9082 629.3042,385.9082 Q628.416,385.9082 627.9429,386.2651 Q627.4697,386.6221 627.4697,387.2861 Q627.4697,387.8008 627.8142,388.137 Q628.1587,388.4731 629.2544,388.8799 L630.3086,389.2783 Q631.8027,389.8262 632.5083,390.731 Q633.2139,391.6357 633.2139,393.0137 Q633.2139,394.8896 632.1057,395.8152 Q630.9976,396.7407 628.7563,396.7407 Q627.835,396.7407 626.9094,396.5208 Q625.9839,396.3008 625.1206,395.8691 L625.1206,393.3374 Q626.1001,394.0347 627.0173,394.375 Q627.9346,394.7153 628.8311,394.7153 Q629.7358,394.7153 630.2339,394.3044 Q630.7319,393.8936 630.7319,393.1548 Q630.7319,392.5986 630.3999,392.1794 Q630.0679,391.7603 629.437,391.5195 Z "/><text fill="#000000" font-family="sans-serif" font-size="12" lengthAdjust="spacingAndGlyphs" textLength="31" x="649.25" y="395.0352">Stage</text><line style="stroke: #A80036; stroke-width: 1.5;" x1="574" x2="723" y1="406.5" y2="406.5"/><polygon fill="none" points="584,413.4775,588,417.4775,584,421.4775,580,417.4775" style="stroke: #B38D22; stroke-width: 1.0;"/><text fill="#000000" font-family="sans-serif" font-size="11" lengthAdjust="spacingAndGlyphs" textLength="13" x="593" y="421.1348">id:</text><text fill="#000000" font-family="sans-serif" font-size="11" font-weight="bold" lengthAdjust="spacingAndGlyphs" textLength="25" x="609" y="421.1348">uuid</text><ellipse cx="584" cy="431.4326" fill="none" rx="3" ry="3" style="stroke: #038048; stroke-width: 1.0;"/><text fill="#000000" font-family="sans-serif" font-size="11" lengthAdjust="spacingAndGlyphs" textLength="63" x="593" y="434.0898">inserted_at:</text><text fill="#000000" font-family="sans-serif" font-size="11" font-weight="bold" lengthAdjust="spacingAndGlyphs" textLength="59" x="659" y="434.0898">timestamp</text><ellipse cx="584" cy="444.3877" fill="none" rx="3" ry="3" style="stroke: #038048; stroke-width: 1.0;"/><text fill="#000000" font-family="sans-serif" font-size="11" lengthAdjust="spacingAndGlyphs" textLength="63" x="593" y="447.0449">updated_at:</text><text fill="#000000" font-family="sans-serif" font-size="11" font-weight="bold" lengthAdjust="spacingAndGlyphs" textLength="59" x="659" y="447.0449">timestamp</text><line style="stroke: #A80036; stroke-width: 1.0; stroke-dasharray: 1.0,2.0;" x1="574" x2="723" y1="453.3652" y2="453.3652"/><ellipse cx="584" cy="465.3428" fill="#000000" rx="3" ry="3" style="stroke: #000000; stroke-width: 1.0;"/><text fill="#000000" font-family="sans-serif" font-size="11" lengthAdjust="spacingAndGlyphs" textLength="45" x="593" y="468">pipeline:</text><text fill="#000000" font-family="sans-serif" font-size="11" font-style="italic" lengthAdjust="spacingAndGlyphs" textLength="41" x="641" y="468">Pipeline</text><ellipse cx="584" cy="478.2979" fill="#000000" rx="3" ry="3" style="stroke: #000000; stroke-width: 1.0;"/><text fill="#000000" font-family="sans-serif" font-size="11" lengthAdjust="spacingAndGlyphs" textLength="31" x="593" y="480.9551">when:</text><text fill="#000000" font-family="sans-serif" font-size="11" font-style="italic" lengthAdjust="spacingAndGlyphs" textLength="55" x="627" y="480.9551">WhenType</text><line style="stroke: #A80036; stroke-width: 1.0; stroke-dasharray: 1.0,2.0;" x1="574" x2="723" y1="487.2754" y2="487.2754"/><ellipse cx="584" cy="499.2529" fill="none" rx="3" ry="3" style="stroke: #038048; stroke-width: 1.0;"/><text fill="#000000" font-family="sans-serif" font-size="11" lengthAdjust="spacingAndGlyphs" textLength="67" x="593" y="501.9102">name: string</text><ellipse cx="584" cy="512.208" fill="none" rx="3" ry="3" style="stroke: #038048; stroke-width: 1.0;"/><text fill="#000000" font-family="sans-serif" font-size="11" lengthAdjust="spacingAndGlyphs" textLength="106" x="593" y="514.8652">stage_group: string</text><ellipse cx="584" cy="525.1631" fill="none" rx="3" ry="3" style="stroke: #038048; stroke-width: 1.0;"/><text fill="#000000" font-family="sans-serif" font-size="11" lengthAdjust="spacingAndGlyphs" textLength="82" x="593" y="527.8203">except: [string]</text><ellipse cx="584" cy="538.1182" fill="none" rx="3" ry="3" style="stroke: #038048; stroke-width: 1.0;"/><text fill="#000000" font-family="sans-serif" font-size="11" lengthAdjust="spacingAndGlyphs" textLength="69" x="593" y="540.7754">only: [string]</text><ellipse cx="584" cy="551.0732" fill="none" rx="3" ry="3" style="stroke: #038048; stroke-width: 1.0;"/><text fill="#000000" font-family="sans-serif" font-size="11" lengthAdjust="spacingAndGlyphs" textLength="94" x="593" y="553.7305">config_file: string</text><ellipse cx="584" cy="564.0283" fill="none" rx="3" ry="3" style="stroke: #038048; stroke-width: 1.0;"/><text fill="#000000" font-family="sans-serif" font-size="11" lengthAdjust="spacingAndGlyphs" textLength="63" x="593" y="566.6855">config: map</text><ellipse cx="584" cy="576.9834" fill="none" rx="3" ry="3" style="stroke: #038048; stroke-width: 1.0;"/><text fill="#000000" font-family="sans-serif" font-size="11" lengthAdjust="spacingAndGlyphs" textLength="86" x="593" y="579.6406">cloudbuild: map</text><!--class Builder.Job--><rect fill="#FEFECE" filter="url(#f1shflytb66l67)" height="133.7305" id="Builder.Job" style="stroke: #A80036; stroke-width: 1.5;" width="243" x="207" y="413"/><ellipse cx="314.75" cy="429" fill="#FF7700" rx="11" ry="11" style="stroke: #A80036; stroke-width: 1.0;"/><path d="M314.2334,429.563 Q312.3823,428.8574 311.7266,428.0813 Q311.0708,427.3052 311.0708,425.9937 Q311.0708,424.3086 312.1499,423.3457 Q313.229,422.3828 315.1133,422.3828 Q315.9683,422.3828 316.8232,422.5779 Q317.6782,422.7729 318.5166,423.1548 L318.5166,425.5454 Q317.728,424.9893 316.9146,424.6987 Q316.1011,424.4082 315.3042,424.4082 Q314.416,424.4082 313.9429,424.7651 Q313.4697,425.1221 313.4697,425.7861 Q313.4697,426.3008 313.8142,426.637 Q314.1587,426.9731 315.2544,427.3799 L316.3086,427.7783 Q317.8027,428.3262 318.5083,429.231 Q319.2139,430.1357 319.2139,431.5137 Q319.2139,433.3896 318.1057,434.3152 Q316.9976,435.2407 314.7563,435.2407 Q313.835,435.2407 312.9094,435.0208 Q311.9839,434.8008 311.1206,434.3691 L311.1206,431.8374 Q312.1001,432.5347 313.0173,432.875 Q313.9346,433.2153 314.8311,433.2153 Q315.7358,433.2153 316.2339,432.8044 Q316.7319,432.3936 316.7319,431.6548 Q316.7319,431.0986 316.3999,430.6794 Q316.0679,430.2603 315.437,430.0195 Z "/><text fill="#000000" font-family="sans-serif" font-size="12" lengthAdjust="spacingAndGlyphs" textLength="19" x="335.25" y="433.5352">Job</text><line style="stroke: #A80036; stroke-width: 1.5;" x1="208" x2="449" y1="445" y2="445"/><polygon fill="none" points="218,451.9775,222,455.9775,218,459.9775,214,455.9775" style="stroke: #B38D22; stroke-width: 1.0;"/><text fill="#000000" font-family="sans-serif" font-size="11" lengthAdjust="spacingAndGlyphs" textLength="13" x="227" y="459.6348">id:</text><text fill="#000000" font-family="sans-serif" font-size="11" font-weight="bold" lengthAdjust="spacingAndGlyphs" textLength="25" x="243" y="459.6348">uuid</text><ellipse cx="218" cy="469.9326" fill="none" rx="3" ry="3" style="stroke: #038048; stroke-width: 1.0;"/><text fill="#000000" font-family="sans-serif" font-size="11" lengthAdjust="spacingAndGlyphs" textLength="63" x="227" y="472.5898">inserted_at:</text><text fill="#000000" font-family="sans-serif" font-size="11" font-weight="bold" lengthAdjust="spacingAndGlyphs" textLength="59" x="293" y="472.5898">timestamp</text><ellipse cx="218" cy="482.8877" fill="none" rx="3" ry="3" style="stroke: #038048; stroke-width: 1.0;"/><text fill="#000000" font-family="sans-serif" font-size="11" lengthAdjust="spacingAndGlyphs" textLength="63" x="227" y="485.5449">updated_at:</text><text fill="#000000" font-family="sans-serif" font-size="11" font-weight="bold" lengthAdjust="spacingAndGlyphs" textLength="59" x="293" y="485.5449">timestamp</text><line style="stroke: #A80036; stroke-width: 1.0; stroke-dasharray: 1.0,2.0;" x1="208" x2="449" y1="491.8652" y2="491.8652"/><ellipse cx="218" cy="503.8428" fill="#000000" rx="3" ry="3" style="stroke: #000000; stroke-width: 1.0;"/><text fill="#000000" font-family="sans-serif" font-size="11" lengthAdjust="spacingAndGlyphs" textLength="89" x="227" y="506.5">gcloud_build_id:</text><text fill="#000000" font-family="sans-serif" font-size="11" font-style="italic" lengthAdjust="spacingAndGlyphs" textLength="125" x="319" y="506.5">GoogleCloudBuild.Build</text><ellipse cx="218" cy="516.7979" fill="#000000" rx="3" ry="3" style="stroke: #000000; stroke-width: 1.0;"/><text fill="#000000" font-family="sans-serif" font-size="11" lengthAdjust="spacingAndGlyphs" textLength="32" x="227" y="519.4551">stage:</text><text fill="#000000" font-family="sans-serif" font-size="11" font-style="italic" lengthAdjust="spacingAndGlyphs" textLength="29" x="262" y="519.4551">Stage</text><line style="stroke: #A80036; stroke-width: 1.0; stroke-dasharray: 1.0,2.0;" x1="208" x2="449" y1="525.7754" y2="525.7754"/><ellipse cx="218" cy="537.7529" fill="#000000" rx="3" ry="3" style="stroke: #000000; stroke-width: 1.0;"/><text fill="#000000" font-family="sans-serif" font-size="11" lengthAdjust="spacingAndGlyphs" textLength="36" x="227" y="540.4102">status:</text><text fill="#000000" font-family="sans-serif" font-size="11" font-style="italic" lengthAdjust="spacingAndGlyphs" textLength="50" x="266" y="540.4102">JobStatus</text><!--class Sources.Repository--><rect fill="#FEFECE" filter="url(#f1shflytb66l67)" height="172.5957" id="Sources.Repository" style="stroke: #A80036; stroke-width: 1.5;" width="161" x="1363" y="51.5"/><ellipse cx="1408.75" cy="67.5" fill="#FF7700" rx="11" ry="11" style="stroke: #A80036; stroke-width: 1.0;"/><path d="M1408.2334,68.063 Q1406.3823,67.3574 1405.7266,66.5813 Q1405.0708,65.8052 1405.0708,64.4937 Q1405.0708,62.8086 1406.1499,61.8457 Q1407.229,60.8828 1409.1133,60.8828 Q1409.9683,60.8828 1410.8232,61.0779 Q1411.6782,61.2729 1412.5166,61.6548 L1412.5166,64.0454 Q1411.728,63.4893 1410.9146,63.1987 Q1410.1011,62.9082 1409.3042,62.9082 Q1408.416,62.9082 1407.9429,63.2651 Q1407.4697,63.6221 1407.4697,64.2861 Q1407.4697,64.8008 1407.8142,65.137 Q1408.1587,65.4731 1409.2544,65.8799 L1410.3086,66.2783 Q1411.8027,66.8262 1412.5083,67.731 Q1413.2139,68.6357 1413.2139,70.0137 Q1413.2139,71.8896 1412.1057,72.8152 Q1410.9976,73.7407 1408.7563,73.7407 Q1407.835,73.7407 1406.9094,73.5208 Q1405.9839,73.3008 1405.1206,72.8691 L1405.1206,70.3374 Q1406.1001,71.0347 1407.0173,71.375 Q1407.9346,71.7153 1408.8311,71.7153 Q1409.7358,71.7153 1410.2339,71.3044 Q1410.7319,70.8936 1410.7319,70.1548 Q1410.7319,69.5986 1410.3999,69.1794 Q1410.0679,68.7603 1409.437,68.5195 Z "/><text fill="#000000" font-family="sans-serif" font-size="12" lengthAdjust="spacingAndGlyphs" textLength="61" x="1429.25" y="72.0352">Repository</text><line style="stroke: #A80036; stroke-width: 1.5;" x1="1364" x2="1523" y1="83.5" y2="83.5"/><polygon fill="none" points="1374,90.4775,1378,94.4775,1374,98.4775,1370,94.4775" style="stroke: #B38D22; stroke-width: 1.0;"/><text fill="#000000" font-family="sans-serif" font-size="11" lengthAdjust="spacingAndGlyphs" textLength="13" x="1383" y="98.1348">id:</text><text fill="#000000" font-family="sans-serif" font-size="11" font-weight="bold" lengthAdjust="spacingAndGlyphs" textLength="25" x="1399" y="98.1348">uuid</text><ellipse cx="1374" cy="108.4326" fill="none" rx="3" ry="3" style="stroke: #038048; stroke-width: 1.0;"/><text fill="#000000" font-family="sans-serif" font-size="11" lengthAdjust="spacingAndGlyphs" textLength="63" x="1383" y="111.0898">inserted_at:</text><text fill="#000000" font-family="sans-serif" font-size="11" font-weight="bold" lengthAdjust="spacingAndGlyphs" textLength="59" x="1449" y="111.0898">timestamp</text><ellipse cx="1374" cy="121.3877" fill="none" rx="3" ry="3" style="stroke: #038048; stroke-width: 1.0;"/><text fill="#000000" font-family="sans-serif" font-size="11" lengthAdjust="spacingAndGlyphs" textLength="63" x="1383" y="124.0449">updated_at:</text><text fill="#000000" font-family="sans-serif" font-size="11" font-weight="bold" lengthAdjust="spacingAndGlyphs" textLength="59" x="1449" y="124.0449">timestamp</text><line style="stroke: #A80036; stroke-width: 1.0; stroke-dasharray: 1.0,2.0;" x1="1364" x2="1523" y1="130.3652" y2="130.3652"/><ellipse cx="1374" cy="142.3428" fill="#000000" rx="3" ry="3" style="stroke: #000000; stroke-width: 1.0;"/><text fill="#000000" font-family="sans-serif" font-size="11" lengthAdjust="spacingAndGlyphs" textLength="51" x="1383" y="145">pipelines:</text><text fill="#000000" font-family="sans-serif" font-size="11" font-style="italic" lengthAdjust="spacingAndGlyphs" textLength="70" x="1437" y="145">Build.Pipeline</text><line style="stroke: #A80036; stroke-width: 1.0; stroke-dasharray: 1.0,2.0;" x1="1364" x2="1523" y1="151.3203" y2="151.3203"/><ellipse cx="1374" cy="163.2979" fill="none" rx="3" ry="3" style="stroke: #038048; stroke-width: 1.0;"/><text fill="#000000" font-family="sans-serif" font-size="11" lengthAdjust="spacingAndGlyphs" textLength="106" x="1383" y="165.9551">gcloud_repo: string</text><ellipse cx="1374" cy="176.2529" fill="none" rx="3" ry="3" style="stroke: #038048; stroke-width: 1.0;"/><text fill="#000000" font-family="sans-serif" font-size="11" lengthAdjust="spacingAndGlyphs" textLength="135" x="1383" y="178.9102">gcloud_project_id: string</text><ellipse cx="1374" cy="189.208" fill="none" rx="3" ry="3" style="stroke: #038048; stroke-width: 1.0;"/><text fill="#000000" font-family="sans-serif" font-size="11" lengthAdjust="spacingAndGlyphs" textLength="104" x="1383" y="191.8652">github_repo: string</text><ellipse cx="1374" cy="202.1631" fill="none" rx="3" ry="3" style="stroke: #038048; stroke-width: 1.0;"/><text fill="#000000" font-family="sans-serif" font-size="11" lengthAdjust="spacingAndGlyphs" textLength="112" x="1383" y="204.8203">github_secret: string</text><ellipse cx="1374" cy="215.1182" fill="none" rx="3" ry="3" style="stroke: #038048; stroke-width: 1.0;"/><text fill="#000000" font-family="sans-serif" font-size="11" lengthAdjust="spacingAndGlyphs" textLength="109" x="1383" y="217.7754">github_token: string</text><!--class GoogleCloudBuild.Build--><rect fill="#FEFECE" filter="url(#f1shflytb66l67)" height="60.9551" id="GoogleCloudBuild.Build" style="stroke: #A80036; stroke-width: 1.5;" width="74" x="41.5" y="139.5"/><ellipse cx="62.8" cy="155.5" fill="#ADD1B2" rx="11" ry="11" style="stroke: #A80036; stroke-width: 1.0;"/><path d="M65.7731,161.1431 Q65.1921,161.4419 64.5529,161.5913 Q63.9138,161.7407 63.2082,161.7407 Q60.7014,161.7407 59.3815,160.0889 Q58.0617,158.437 58.0617,155.3159 Q58.0617,152.1865 59.3815,150.5347 Q60.7014,148.8828 63.2082,148.8828 Q63.9138,148.8828 64.5612,149.0322 Q65.2087,149.1816 65.7731,149.4805 L65.7731,152.2031 Q65.1423,151.6221 64.5488,151.3523 Q63.9553,151.0825 63.3244,151.0825 Q61.9797,151.0825 61.2949,152.1492 Q60.6101,153.2158 60.6101,155.3159 Q60.6101,157.4077 61.2949,158.4744 Q61.9797,159.541 63.3244,159.541 Q63.9553,159.541 64.5488,159.2712 Q65.1423,159.0015 65.7731,158.4204 Z "/><text fill="#000000" font-family="sans-serif" font-size="12" lengthAdjust="spacingAndGlyphs" textLength="28" x="78.2" y="160.0352">Build</text><line style="stroke: #A80036; stroke-width: 1.5;" x1="42.5" x2="114.5" y1="171.5" y2="171.5"/><ellipse cx="52.5" cy="183.4775" fill="none" rx="3" ry="3" style="stroke: #038048; stroke-width: 1.0;"/><text fill="#000000" font-family="sans-serif" font-size="11" lengthAdjust="spacingAndGlyphs" textLength="48" x="61.5" y="186.1348">id: string</text><line style="stroke: #A80036; stroke-width: 1.5;" x1="42.5" x2="114.5" y1="192.4551" y2="192.4551"/><!--class GoogleCloudBuild.Source--><rect fill="#FEFECE" filter="url(#f1shflytb66l67)" height="60.9551" id="GoogleCloudBuild.Source" style="stroke: #A80036; stroke-width: 1.5;" width="93" x="32" y="43.5"/><ellipse cx="57.35" cy="59.5" fill="#ADD1B2" rx="11" ry="11" style="stroke: #A80036; stroke-width: 1.0;"/><path d="M60.3231,65.1431 Q59.7421,65.4419 59.1029,65.5913 Q58.4638,65.7407 57.7582,65.7407 Q55.2514,65.7407 53.9315,64.0889 Q52.6117,62.437 52.6117,59.3159 Q52.6117,56.1865 53.9315,54.5347 Q55.2514,52.8828 57.7582,52.8828 Q58.4638,52.8828 59.1112,53.0322 Q59.7587,53.1816 60.3231,53.4805 L60.3231,56.2031 Q59.6923,55.6221 59.0988,55.3523 Q58.5053,55.0825 57.8744,55.0825 Q56.5297,55.0825 55.8449,56.1492 Q55.1601,57.2158 55.1601,59.3159 Q55.1601,61.4077 55.8449,62.4744 Q56.5297,63.541 57.8744,63.541 Q58.5053,63.541 59.0988,63.2712 Q59.6923,63.0015 60.3231,62.4204 Z "/><text fill="#000000" font-family="sans-serif" font-size="12" lengthAdjust="spacingAndGlyphs" textLength="38" x="73.65" y="64.0352">Source</text><line style="stroke: #A80036; stroke-width: 1.5;" x1="33" x2="124" y1="75.5" y2="75.5"/><ellipse cx="43" cy="87.4775" fill="none" rx="3" ry="3" style="stroke: #038048; stroke-width: 1.0;"/><text fill="#000000" font-family="sans-serif" font-size="11" lengthAdjust="spacingAndGlyphs" textLength="67" x="52" y="90.1348">name: string</text><line style="stroke: #A80036; stroke-width: 1.5;" x1="33" x2="124" y1="96.4551" y2="96.4551"/><!--class GithubService.User--><rect fill="#FEFECE" filter="url(#f1shflytb66l67)" height="60.9551" id="GithubService.User" style="stroke: #A80036; stroke-width: 1.5;" width="107" x="595" y="232.5"/><ellipse cx="632.05" cy="248.5" fill="#ADD1B2" rx="11" ry="11" style="stroke: #A80036; stroke-width: 1.0;"/><path d="M635.0231,254.1431 Q634.4421,254.4419 633.8029,254.5913 Q633.1638,254.7407 632.4582,254.7407 Q629.9514,254.7407 628.6315,253.0889 Q627.3117,251.437 627.3117,248.3159 Q627.3117,245.1865 628.6315,243.5347 Q629.9514,241.8828 632.4582,241.8828 Q633.1638,241.8828 633.8112,242.0322 Q634.4587,242.1816 635.0231,242.4805 L635.0231,245.2031 Q634.3923,244.6221 633.7988,244.3523 Q633.2053,244.0825 632.5744,244.0825 Q631.2297,244.0825 630.5449,245.1492 Q629.8601,246.2158 629.8601,248.3159 Q629.8601,250.4077 630.5449,251.4744 Q631.2297,252.541 632.5744,252.541 Q633.2053,252.541 633.7988,252.2712 Q634.3923,252.0015 635.0231,251.4204 Z "/><text fill="#000000" font-family="sans-serif" font-size="12" lengthAdjust="spacingAndGlyphs" textLength="26" x="650.95" y="253.0352">User</text><line style="stroke: #A80036; stroke-width: 1.5;" x1="596" x2="701" y1="264.5" y2="264.5"/><ellipse cx="606" cy="276.4775" fill="none" rx="3" ry="3" style="stroke: #038048; stroke-width: 1.0;"/><text fill="#000000" font-family="sans-serif" font-size="11" lengthAdjust="spacingAndGlyphs" textLength="81" x="615" y="279.1348">node_id: string</text><line style="stroke: #A80036; stroke-width: 1.5;" x1="596" x2="701" y1="285.4551" y2="285.4551"/><!--class GithubService.Repository--><rect fill="#FEFECE" filter="url(#f1shflytb66l67)" height="60.9551" id="GithubService.Repository" style="stroke: #A80036; stroke-width: 1.5;" width="93" x="602" y="136.5"/><ellipse cx="617" cy="152.5" fill="#ADD1B2" rx="11" ry="11" style="stroke: #A80036; stroke-width: 1.0;"/><path d="M619.9731,158.1431 Q619.3921,158.4419 618.7529,158.5913 Q618.1138,158.7407 617.4082,158.7407 Q614.9014,158.7407 613.5815,157.0889 Q612.2617,155.437 612.2617,152.3159 Q612.2617,149.1865 613.5815,147.5347 Q614.9014,145.8828 617.4082,145.8828 Q618.1138,145.8828 618.7612,146.0322 Q619.4087,146.1816 619.9731,146.4805 L619.9731,149.2031 Q619.3423,148.6221 618.7488,148.3523 Q618.1553,148.0825 617.5244,148.0825 Q616.1797,148.0825 615.4949,149.1492 Q614.8101,150.2158 614.8101,152.3159 Q614.8101,154.4077 615.4949,155.4744 Q616.1797,156.541 617.5244,156.541 Q618.1553,156.541 618.7488,156.2712 Q619.3423,156.0015 619.9731,155.4204 Z "/><text fill="#000000" font-family="sans-serif" font-size="12" lengthAdjust="spacingAndGlyphs" textLength="61" x="631" y="157.0352">Repository</text><line style="stroke: #A80036; stroke-width: 1.5;" x1="603" x2="694" y1="168.5" y2="168.5"/><ellipse cx="613" cy="180.4775" fill="none" rx="3" ry="3" style="stroke: #038048; stroke-width: 1.0;"/><text fill="#000000" font-family="sans-serif" font-size="11" lengthAdjust="spacingAndGlyphs" textLength="53" x="622" y="183.1348">url: string</text><line style="stroke: #A80036; stroke-width: 1.5;" x1="603" x2="694" y1="189.4551" y2="189.4551"/><!--class Subtitles--><rect fill="#FEFECE" filter="url(#f1shflytb66l67)" height="86.8652" id="Subtitles" style="stroke: #A80036; stroke-width: 1.5;" width="99" x="29" y="235.5"/><ellipse cx="52.55" cy="251.5" fill="#FF7700" rx="11" ry="11" style="stroke: #A80036; stroke-width: 1.0;"/><path d="M48.4777,247.2651 L48.4777,245.1069 L55.8571,245.1069 L55.8571,247.2651 L53.3918,247.2651 L53.3918,255.3418 L55.8571,255.3418 L55.8571,257.5 L48.4777,257.5 L48.4777,255.3418 L50.9431,255.3418 L50.9431,247.2651 Z "/><text fill="#000000" font-family="sans-serif" font-size="12" lengthAdjust="spacingAndGlyphs" textLength="48" x="68.45" y="256.0352">Subtitles</text><line style="stroke: #A80036; stroke-width: 1.5;" x1="30" x2="127" y1="267.5" y2="267.5"/><polygon fill="none" points="40,274.4775,44,278.4775,40,282.4775,36,278.4775" style="stroke: #B38D22; stroke-width: 1.0;"/><text fill="#000000" font-family="sans-serif" font-size="11" lengthAdjust="spacingAndGlyphs" textLength="10" x="49" y="282.1348">id</text><ellipse cx="40" cy="292.4326" fill="none" rx="3" ry="3" style="stroke: #038048; stroke-width: 1.0;"/><text fill="#000000" font-family="sans-serif" font-size="11" lengthAdjust="spacingAndGlyphs" textLength="29" x="49" y="295.0898">fields</text><ellipse cx="40" cy="305.3877" fill="#000000" rx="3" ry="3" style="stroke: #000000; stroke-width: 1.0;"/><text fill="#000000" font-family="sans-serif" font-size="11" lengthAdjust="spacingAndGlyphs" textLength="73" x="49" y="308.0449">relations field</text><line style="stroke: #A80036; stroke-width: 1.5;" x1="30" x2="127" y1="314.3652" y2="314.3652"/><!--link Accounts.User to Builder.Pipeline--><path d="M936.3214,306.2076 C987.3719,336.6458 1055.1198,377.0396 1109.9401,409.7255 " fill="none" id="Accounts.User-Builder.Pipeline" style="stroke: #A80036; stroke-width: 1.0;"/><text fill="#000000" font-family="sans-serif" font-size="13" lengthAdjust="spacingAndGlyphs" textLength="22" x="944.0539" y="323.4981">1..*</text><text fill="#000000" font-family="sans-serif" font-size="13" lengthAdjust="spacingAndGlyphs" textLength="22" x="1080.0779" y="418.6664">0..*</text><!--link Builder.Pipeline to Sources.Repository--><path d="M1273.4227,373.6018 C1307.2276,326.7732 1347.9042,270.4253 1381.0002,224.5787 " fill="none" id="Builder.Pipeline-Sources.Repository" style="stroke: #A80036; stroke-width: 1.0;"/><text fill="#000000" font-family="sans-serif" font-size="13" lengthAdjust="spacingAndGlyphs" textLength="22" x="1255.9189" y="363.1601">1..*</text><text fill="#000000" font-family="sans-serif" font-size="13" lengthAdjust="spacingAndGlyphs" textLength="22" x="1353.1432" y="244.6724">0..*</text><!--link Builder.Pipeline to Builder.PipelineFromType--><path d="M1302.0597,467 C1385.2835,467 1503.8949,467 1579.536,467 " fill="none" id="Builder.Pipeline-Builder.PipelineFromType" style="stroke: #A80036; stroke-width: 1.0;"/><rect fill="#FFFFFF" height="10" style="stroke: #A80036; stroke-width: 1.5;" width="10" x="1579.9068" y="462"/><!--link Builder.Stage to Builder.Pipeline--><path d="M724.2671,478.2332 C824.2999,475.9006 1000.5047,471.7918 1109.8252,469.2426 " fill="none" id="Builder.Stage-Builder.Pipeline" style="stroke: #A80036; stroke-width: 1.0;"/><text fill="#000000" font-family="sans-serif" font-size="13" lengthAdjust="spacingAndGlyphs" textLength="22" x="731.9948" y="491.3055">1..*</text><text fill="#000000" font-family="sans-serif" font-size="13" lengthAdjust="spacingAndGlyphs" textLength="22" x="1079.9546" y="482.5543">0..*</text><!--link Builder.Stage to Builder.WhenType--><path d="M724.2671,500.6576 C839.62,532.1081 1056.2635,591.175 1154.8328,618.0495 " fill="none" id="Builder.Stage-Builder.WhenType" style="stroke: #A80036; stroke-width: 1.0;"/><rect fill="#FFFFFF" height="10" style="stroke: #A80036; stroke-width: 1.5;" width="10" x="1154.7229" y="614.3827"/><!--link Builder.Job to Builder.JobStatus--><path d="M424.9445,547.2098 C472.8116,580.5671 529.7408,620.2397 574.1704,651.2016 " fill="none" id="Builder.Job-Builder.JobStatus" style="stroke: #A80036; stroke-width: 1.0;"/><rect fill="#FFFFFF" height="10" style="stroke: #A80036; stroke-width: 1.5;" width="10" x="573.4303" y="649.1702"/><!--link Builder.Job to Builder.Stage--><path d="M450.3911,480 C491.5447,480 536.2697,480 572.7928,480 " fill="none" id="Builder.Job-Builder.Stage" style="stroke: #A80036; stroke-width: 1.0;"/><text fill="#000000" font-family="sans-serif" font-size="13" lengthAdjust="spacingAndGlyphs" textLength="22" x="458.0739" y="493.0187">1..*</text><text fill="#000000" font-family="sans-serif" font-size="13" lengthAdjust="spacingAndGlyphs" textLength="22" x="543.0704" y="493.2296">0..*</text><!--link GoogleCloudBuild.Build to Builder.Job--><path d="M119.8815,193.4008 C130.6573,200.5281 141.811,208.9082 151,218 C209.7791,276.1571 260.7936,356.4854 292.858,412.8164 " fill="none" id="GoogleCloudBuild.Build-Builder.Job" style="stroke: #A80036; stroke-width: 1.0;"/><polygon fill="#A80036" points="115.6157,190.63,120.9845,198.8869,119.8088,193.3536,125.3422,192.1779,115.6157,190.63" style="stroke: #A80036; stroke-width: 1.0;"/><!--link GoogleCloudBuild.Source to Sources.Repository--><path d="M130.1269,71.3837 C180.6678,69.0501 259.8576,66 328.5,66 C328.5,66 328.5,66 1206,66 C1259.8572,66 1317.7439,83.1661 1362.8844,100.7346 " fill="none" id="GoogleCloudBuild.Source-Sources.Repository" style="stroke: #A80036; stroke-width: 1.0;"/><polygon fill="#A80036" points="125.0226,71.6214,134.199,75.1982,130.0172,71.3887,133.8267,67.2068,125.0226,71.6214" style="stroke: #A80036; stroke-width: 1.0;"/><text fill="#000000" font-family="sans-serif" font-size="13" lengthAdjust="spacingAndGlyphs" textLength="114" x="591.5" y="62.5684">field: gcloud_repo</text><!--link GithubService.User to Accounts.User--><path d="M707.3221,262.4451 C731.2937,262.2189 759.3095,261.9546 784.7792,261.7143 " fill="none" id="GithubService.User-Accounts.User" style="stroke: #A80036; stroke-width: 1.0;"/><polygon fill="#A80036" points="702.2706,262.4927,711.308,266.4074,707.2704,262.4454,711.2324,258.4078,702.2706,262.4927" style="stroke: #A80036; stroke-width: 1.0;"/><!--link GithubService.Repository to Sources.Repository--><path d="M700.4087,163.9187 C723.8062,162.5952 751.7871,161.1027 777,160 C988.3764,150.7551 1237.6161,143.4981 1362.9416,140.1021 " fill="none" id="GithubService.Repository-Sources.Repository" style="stroke: #A80036; stroke-width: 1.0;"/><polygon fill="#A80036" points="695.1818,164.2159,704.3944,167.6985,700.1737,163.932,703.9402,159.7114,695.1818,164.2159" style="stroke: #A80036; stroke-width: 1.0;"/><text fill="#000000" font-family="sans-serif" font-size="13" lengthAdjust="spacingAndGlyphs" textLength="112" x="967" y="145.5684">field: github_repo</text><!--
@startuml
left to right direction

class Subtitles << (I,#FF7700) >> {
  #id
  +fields
  *relations field
}

namespace Accounts #FCF6BD {
  class User << (S,#FF7700) >> {
    #id: <b>uuid</b>
    +inserted_at: <b>timestamp</b>
    +updated_at: <b>timestamp</b>
    ..
    +node_id: string
    +login: string
    +html_url: string
    +avatar_url: string
  }

  User "1..*" - - "0..*" Builder.Pipeline
}

namespace Sources #FCF6BD {
  class Repository << (S,#FF7700) >> {
    #id: <b>uuid</b>
    +inserted_at: <b>timestamp</b>
    +updated_at: <b>timestamp</b>
    ..
    *pipelines: <i>Build.Pipeline</i>
    ..
    +gcloud_repo: string
    +gcloud_project_id: string
    +github_repo: string
    +github_secret: string
    +github_token: string
  }
}


namespace Builder #D0F4DE {
  enum JobStatus {
    <b>NEW</b>
    <b>RUNNING</b>
    <b>RUNNING_NOTIFIED</b>
    <b>FAILED</b>
    <b>FAILED_NOTIFIED</b>
    <b>CANCELLED</b>
    <b>CANCELLED_NOTIFIED</b>
    <b>SUCCESS</b>
    <b>SUCCESS_NOTIFIED</b>
  }

  enum WhenType {
    <b>MANUAL</b>
    <b>AUTO</b>
  }

  enum PipelineFromType {
    <b>PUSH_EVENT</b>
  }

  class Pipeline << (S,#FF7700) >> {
    #id: <b>uuid</b>
    +inserted_at: <b>timestamp</b>
    +updated_at: <b>timestamp</b>
    ..
    *repository: <i>Sources.Repository</i>
    *sender: <i>Accounts.User</i>
    *from_type: <i>PipelineFromType</i>
    ..
    +params: map
    +manifest: map
    +stages_groups: array.string
    +stages_errors: map
  }

  Pipeline "1..*" - - "0..*" Sources.Repository
  Pipeline - -# PipelineFromType

  class Stage << (S,#FF7700) >> {
    #id: <b>uuid</b>
    +inserted_at: <b>timestamp</b>
    +updated_at: <b>timestamp</b>
    ..
    *pipeline: <i>Pipeline</i>
    *when: <i>WhenType</i>
    ..
    +name: string
    +stage_group: string
    +except: [string]
    +only: [string]
    +config_file: string
    +config: map
    +cloudbuild: map
  }

  Stage "1..*" - - "0..*" Pipeline
  Stage - -# WhenType

  class Job << (S,#FF7700) >> {
    #id: <b>uuid</b>
    +inserted_at: <b>timestamp</b>
    +updated_at: <b>timestamp</b>
    ..
    *gcloud_build_id: <i>GoogleCloudBuild.Build</i>
    *stage: <i>Stage</i>
    ..
    *status: <i>JobStatus</i>
  }

  Job - -# JobStatus
  Job "1..*" - - "0..*" Stage
}

namespace GoogleCloudBuild #FBBD0A {
  class Build {
    +id: string
  }

  class Source {
    +name: string
  }

  Build <- - Builder.Job
  Source <- - Sources.Repository : "field: gcloud_repo"
}

namespace GithubService #99DBF3 {
  class User {
    +node_id: string
  }

  class Repository {
    +url: string
  }

  User <- - Accounts.User
  Repository <- - Sources.Repository : "field: github_repo"
}
@enduml

PlantUML version 1.2018.10(Sat Aug 25 14:02:59 BRT 2018)
(GPL source distribution)
Java Runtime: Java(TM) SE Runtime Environment
JVM: Java HotSpot(TM) 64-Bit Server VM
Java Version: 1.8.0_181-b13
Operating System: Mac OS X
OS Version: 10.13.6
Default Encoding: UTF-8
Language: en
Country: BR
--></g></svg>