<?xml version="1.0" encoding="UTF-8" standalone="no"?><svg xmlns="http://www.w3.org/2000/svg" xmlns:xlink="http://www.w3.org/1999/xlink" contentScriptType="application/ecmascript" contentStyleType="text/css" height="803px" preserveAspectRatio="none" style="width:1740px;height:803px;" version="1.1" viewBox="0 0 1740 803" width="1740px" zoomAndPan="magnify"><defs><filter height="300%" id="fsp6efitl6hg6" width="300%" x="-1" y="-1"><feGaussianBlur result="blurOut" stdDeviation="2.0"/><feColorMatrix in="blurOut" result="blurOut2" type="matrix" values="0 0 0 0 0 0 0 0 0 0 0 0 0 0 0 0 0 0 .4 0"/><feOffset dx="4.0" dy="4.0" in="blurOut2" result="blurOut3"/><feBlend in="SourceGraphic" in2="blurOut3" mode="normal"/></filter></defs><g><!--cluster Accounts--><polygon fill="#FCF6BD" filter="url(#fsp6efitl6hg6)" points="777,161,848,161,855,183.4883,944,183.4883,944,336,777,336,777,161" style="stroke: #000000; stroke-width: 1.5;"/><line style="stroke: #000000; stroke-width: 1.5;" x1="777" x2="855" y1="183.4883" y2="183.4883"/><text fill="#000000" font-family="sans-serif" font-size="14" font-weight="bold" lengthAdjust="spacingAndGlyphs" textLength="65" x="781" y="176.5352">Accounts</text><!--cluster Builder--><polygon fill="#D0F4DE" filter="url(#fsp6efitl6hg6)" points="199,344,256,344,263,366.4883,1718,366.4883,1718,791,199,791,199,344" style="stroke: #000000; stroke-width: 1.5;"/><line style="stroke: #000000; stroke-width: 1.5;" x1="199" x2="263" y1="366.4883" y2="366.4883"/><text fill="#000000" font-family="sans-serif" font-size="14" font-weight="bold" lengthAdjust="spacingAndGlyphs" textLength="51" x="203" y="359.5352">Builder</text><!--cluster Sources--><polygon fill="#FCF6BD" filter="url(#fsp6efitl6hg6)" points="1355,28,1416,28,1423,50.4883,1522,50.4883,1522,223,1355,223,1355,28" style="stroke: #000000; stroke-width: 1.5;"/><line style="stroke: #000000; stroke-width: 1.5;" x1="1355" x2="1423" y1="50.4883" y2="50.4883"/><text fill="#000000" font-family="sans-serif" font-size="14" font-weight="bold" lengthAdjust="spacingAndGlyphs" textLength="55" x="1359" y="43.5352">Sources</text><!--cluster GoogleCloudBuild--><polygon fill="#FBBD0A" filter="url(#fsp6efitl6hg6)" points="6,16,141,16,148,38.4883,151,38.4883,151,209,6,209,6,16" style="stroke: #000000; stroke-width: 1.5;"/><line style="stroke: #000000; stroke-width: 1.5;" x1="6" x2="148" y1="38.4883" y2="38.4883"/><text fill="#000000" font-family="sans-serif" font-size="14" font-weight="bold" lengthAdjust="spacingAndGlyphs" textLength="129" x="10" y="31.5352">GoogleCloudBuild</text><!--cluster GithubService--><polygon fill="#99DBF3" filter="url(#fsp6efitl6hg6)" points="587,106,691,106,698,128.4883,710,128.4883,710,299,587,299,587,106" style="stroke: #000000; stroke-width: 1.5;"/><line style="stroke: #000000; stroke-width: 1.5;" x1="587" x2="698" y1="128.4883" y2="128.4883"/><text fill="#000000" font-family="sans-serif" font-size="14" font-weight="bold" lengthAdjust="spacingAndGlyphs" textLength="98" x="591" y="121.5352">GithubService</text><!--class Accounts.User--><rect fill="#FEFECE" filter="url(#fsp6efitl6hg6)" height="138.6855" id="Accounts.User" style="stroke: #A80036; stroke-width: 1.5;" width="151" x="785" y="188.5"/><ellipse cx="843.25" cy="204.5" fill="#FF7700" rx="11" ry="11" style="stroke: #A80036; stroke-width: 1.0;"/><path d="M842.7334,205.063 Q840.8823,204.3574 840.2266,203.5813 Q839.5708,202.8052 839.5708,201.4937 Q839.5708,199.8086 840.6499,198.8457 Q841.729,197.8828 843.6133,197.8828 Q844.4683,197.8828 845.3232,198.0779 Q846.1782,198.2729 847.0166,198.6548 L847.0166,201.0454 Q846.228,200.4893 845.4146,200.1987 Q844.6011,199.9082 843.8042,199.9082 Q842.916,199.9082 842.4429,200.2651 Q841.9697,200.6221 841.9697,201.2861 Q841.9697,201.8008 842.3142,202.137 Q842.6587,202.4731 843.7544,202.8799 L844.8086,203.2783 Q846.3027,203.8262 847.0083,204.731 Q847.7139,205.6357 847.7139,207.0137 Q847.7139,208.8896 846.6057,209.8152 Q845.4976,210.7407 843.2563,210.7407 Q842.335,210.7407 841.4094,210.5208 Q840.4839,210.3008 839.6206,209.8691 L839.6206,207.3374 Q840.6001,208.0347 841.5173,208.375 Q842.4346,208.7153 843.3311,208.7153 Q844.2358,208.7153 844.7339,208.3044 Q845.2319,207.8936 845.2319,207.1548 Q845.2319,206.5986 844.8999,206.1794 Q844.5679,205.7603 843.937,205.5195 Z "/><text fill="#000000" font-family="sans-serif" font-size="12" lengthAdjust="spacingAndGlyphs" textLength="26" x="863.75" y="209.0352">User</text><line style="stroke: #A80036; stroke-width: 1.5;" x1="786" x2="935" y1="220.5" y2="220.5"/><polygon fill="none" points="796,227.4775,800,231.4775,796,235.4775,792,231.4775" style="stroke: #B38D22; stroke-width: 1.0;"/><text fill="#000000" font-family="sans-serif" font-size="11" lengthAdjust="spacingAndGlyphs" textLength="13" x="805" y="235.1348">id:</text><text fill="#000000" font-family="sans-serif" font-size="11" font-weight="bold" lengthAdjust="spacingAndGlyphs" textLength="25" x="821" y="235.1348">uuid</text><ellipse cx="796" cy="245.4326" fill="none" rx="3" ry="3" style="stroke: #038048; stroke-width: 1.0;"/><text fill="#000000" font-family="sans-serif" font-size="11" lengthAdjust="spacingAndGlyphs" textLength="63" x="805" y="248.0898">inserted_at:</text><text fill="#000000" font-family="sans-serif" font-size="11" font-weight="bold" lengthAdjust="spacingAndGlyphs" textLength="59" x="871" y="248.0898">timestamp</text><ellipse cx="796" cy="258.3877" fill="none" rx="3" ry="3" style="stroke: #038048; stroke-width: 1.0;"/><text fill="#000000" font-family="sans-serif" font-size="11" lengthAdjust="spacingAndGlyphs" textLength="63" x="805" y="261.0449">updated_at:</text><text fill="#000000" font-family="sans-serif" font-size="11" font-weight="bold" lengthAdjust="spacingAndGlyphs" textLength="59" x="871" y="261.0449">timestamp</text><line style="stroke: #A80036; stroke-width: 1.0; stroke-dasharray: 1.0,2.0;" x1="786" x2="935" y1="267.3652" y2="267.3652"/><ellipse cx="796" cy="279.3428" fill="none" rx="3" ry="3" style="stroke: #038048; stroke-width: 1.0;"/><text fill="#000000" font-family="sans-serif" font-size="11" lengthAdjust="spacingAndGlyphs" textLength="81" x="805" y="282">node_id: string</text><ellipse cx="796" cy="292.2979" fill="none" rx="3" ry="3" style="stroke: #038048; stroke-width: 1.0;"/><text fill="#000000" font-family="sans-serif" font-size="11" lengthAdjust="spacingAndGlyphs" textLength="65" x="805" y="294.9551">login: string</text><ellipse cx="796" cy="305.2529" fill="none" rx="3" ry="3" style="stroke: #038048; stroke-width: 1.0;"/><text fill="#000000" font-family="sans-serif" font-size="11" lengthAdjust="spacingAndGlyphs" textLength="83" x="805" y="307.9102">html_url: string</text><ellipse cx="796" cy="318.208" fill="none" rx="3" ry="3" style="stroke: #038048; stroke-width: 1.0;"/><text fill="#000000" font-family="sans-serif" font-size="11" lengthAdjust="spacingAndGlyphs" textLength="92" x="805" y="320.8652">avatar_url: string</text><!--class Builder.Pipeline--><rect fill="#FEFECE" filter="url(#fsp6efitl6hg6)" height="185.5508" id="Builder.Pipeline" style="stroke: #A80036; stroke-width: 1.5;" width="192" x="1110" y="371"/><ellipse cx="1179.25" cy="387" fill="#FF7700" rx="11" ry="11" style="stroke: #A80036; stroke-width: 1.0;"/><path d="M1178.7334,387.563 Q1176.8823,386.8574 1176.2266,386.0813 Q1175.5708,385.3052 1175.5708,383.9937 Q1175.5708,382.3086 1176.6499,381.3457 Q1177.729,380.3828 1179.6133,380.3828 Q1180.4683,380.3828 1181.3232,380.5779 Q1182.1782,380.7729 1183.0166,381.1548 L1183.0166,383.5454 Q1182.228,382.9893 1181.4146,382.6987 Q1180.6011,382.4082 1179.8042,382.4082 Q1178.916,382.4082 1178.4429,382.7651 Q1177.9697,383.1221 1177.9697,383.7861 Q1177.9697,384.3008 1178.3142,384.637 Q1178.6587,384.9731 1179.7544,385.3799 L1180.8086,385.7783 Q1182.3027,386.3262 1183.0083,387.231 Q1183.7139,388.1357 1183.7139,389.5137 Q1183.7139,391.3896 1182.6057,392.3152 Q1181.4976,393.2407 1179.2563,393.2407 Q1178.335,393.2407 1177.4094,393.0208 Q1176.4839,392.8008 1175.6206,392.3691 L1175.6206,389.8374 Q1176.6001,390.5347 1177.5173,390.875 Q1178.4346,391.2153 1179.3311,391.2153 Q1180.2358,391.2153 1180.7339,390.8044 Q1181.2319,390.3936 1181.2319,389.6548 Q1181.2319,389.0986 1180.8999,388.6794 Q1180.5679,388.2603 1179.937,388.0195 Z "/><text fill="#000000" font-family="sans-serif" font-size="12" lengthAdjust="spacingAndGlyphs" textLength="45" x="1199.75" y="391.5352">Pipeline</text><line style="stroke: #A80036; stroke-width: 1.5;" x1="1111" x2="1301" y1="403" y2="403"/><polygon fill="none" points="1121,409.9775,1125,413.9775,1121,417.9775,1117,413.9775" style="stroke: #B38D22; stroke-width: 1.0;"/><text fill="#000000" font-family="sans-serif" font-size="11" lengthAdjust="spacingAndGlyphs" textLength="13" x="1130" y="417.6348">id:</text><text fill="#000000" font-family="sans-serif" font-size="11" font-weight="bold" lengthAdjust="spacingAndGlyphs" textLength="25" x="1146" y="417.6348">uuid</text><ellipse cx="1121" cy="427.9326" fill="none" rx="3" ry="3" style="stroke: #038048; stroke-width: 1.0;"/><text fill="#000000" font-family="sans-serif" font-size="11" lengthAdjust="spacingAndGlyphs" textLength="63" x="1130" y="430.5898">inserted_at:</text><text fill="#000000" font-family="sans-serif" font-size="11" font-weight="bold" lengthAdjust="spacingAndGlyphs" textLength="59" x="1196" y="430.5898">timestamp</text><ellipse cx="1121" cy="440.8877" fill="none" rx="3" ry="3" style="stroke: #038048; stroke-width: 1.0;"/><text fill="#000000" font-family="sans-serif" font-size="11" lengthAdjust="spacingAndGlyphs" textLength="63" x="1130" y="443.5449">updated_at:</text><text fill="#000000" font-family="sans-serif" font-size="11" font-weight="bold" lengthAdjust="spacingAndGlyphs" textLength="59" x="1196" y="443.5449">timestamp</text><line style="stroke: #A80036; stroke-width: 1.0; stroke-dasharray: 1.0,2.0;" x1="1111" x2="1301" y1="449.8652" y2="449.8652"/><ellipse cx="1121" cy="461.8428" fill="#000000" rx="3" ry="3" style="stroke: #000000; stroke-width: 1.0;"/><text fill="#000000" font-family="sans-serif" font-size="11" lengthAdjust="spacingAndGlyphs" textLength="59" x="1130" y="464.5">repository:</text><text fill="#000000" font-family="sans-serif" font-size="11" font-style="italic" lengthAdjust="spacingAndGlyphs" textLength="104" x="1192" y="464.5">Sources.Repository</text><ellipse cx="1121" cy="474.7979" fill="#000000" rx="3" ry="3" style="stroke: #000000; stroke-width: 1.0;"/><text fill="#000000" font-family="sans-serif" font-size="11" lengthAdjust="spacingAndGlyphs" textLength="40" x="1130" y="477.4551">sender:</text><text fill="#000000" font-family="sans-serif" font-size="11" font-style="italic" lengthAdjust="spacingAndGlyphs" textLength="79" x="1173" y="477.4551">Accounts.User</text><ellipse cx="1121" cy="487.7529" fill="#000000" rx="3" ry="3" style="stroke: #000000; stroke-width: 1.0;"/><text fill="#000000" font-family="sans-serif" font-size="11" lengthAdjust="spacingAndGlyphs" textLength="58" x="1130" y="490.4102">from_type:</text><text fill="#000000" font-family="sans-serif" font-size="11" font-style="italic" lengthAdjust="spacingAndGlyphs" textLength="95" x="1191" y="490.4102">PipelineFromType</text><line style="stroke: #A80036; stroke-width: 1.0; stroke-dasharray: 1.0,2.0;" x1="1111" x2="1301" y1="496.7305" y2="496.7305"/><ellipse cx="1121" cy="508.708" fill="none" rx="3" ry="3" style="stroke: #038048; stroke-width: 1.0;"/><text fill="#000000" font-family="sans-serif" font-size="11" lengthAdjust="spacingAndGlyphs" textLength="69" x="1130" y="511.3652">params: map</text><ellipse cx="1121" cy="521.6631" fill="none" rx="3" ry="3" style="stroke: #038048; stroke-width: 1.0;"/><text fill="#000000" font-family="sans-serif" font-size="11" lengthAdjust="spacingAndGlyphs" textLength="75" x="1130" y="524.3203">manifest: map</text><ellipse cx="1121" cy="534.6182" fill="none" rx="3" ry="3" style="stroke: #038048; stroke-width: 1.0;"/><text fill="#000000" font-family="sans-serif" font-size="11" lengthAdjust="spacingAndGlyphs" textLength="149" x="1130" y="537.2754">stages_groups: array.string</text><ellipse cx="1121" cy="547.5732" fill="none" rx="3" ry="3" style="stroke: #038048; stroke-width: 1.0;"/><text fill="#000000" font-family="sans-serif" font-size="11" lengthAdjust="spacingAndGlyphs" textLength="104" x="1130" y="550.2305">stages_errors: map</text><!--class Builder.JobStatus--><rect fill="#FEFECE" filter="url(#fsp6efitl6hg6)" height="164.5957" id="Builder.JobStatus" style="stroke: #A80036; stroke-width: 1.5;" width="140" x="578.5" y="617.5"/><ellipse cx="618.25" cy="633.5" fill="#EB937F" rx="11" ry="11" style="stroke: #A80036; stroke-width: 1.0;"/><path d="M622.3643,639.5 L614.6445,639.5 L614.6445,627.1069 L622.3643,627.1069 L622.3643,629.2651 L617.0933,629.2651 L617.0933,631.938 L621.8662,631.938 L621.8662,634.0962 L617.0933,634.0962 L617.0933,637.3418 L622.3643,637.3418 Z "/><text fill="#000000" font-family="sans-serif" font-size="12" lengthAdjust="spacingAndGlyphs" textLength="53" x="637.75" y="638.0352">JobStatus</text><line style="stroke: #A80036; stroke-width: 1.5;" x1="579.5" x2="717.5" y1="649.5" y2="649.5"/><text fill="#000000" font-family="sans-serif" font-size="11" font-weight="bold" lengthAdjust="spacingAndGlyphs" textLength="25" x="584.5" y="664.1348">NEW</text><text fill="#000000" font-family="sans-serif" font-size="11" font-weight="bold" lengthAdjust="spacingAndGlyphs" textLength="52" x="584.5" y="677.0898">RUNNING</text><text fill="#000000" font-family="sans-serif" font-size="11" font-weight="bold" lengthAdjust="spacingAndGlyphs" textLength="113" x="584.5" y="690.0449">RUNNING_NOTIFIED</text><text fill="#000000" font-family="sans-serif" font-size="11" font-weight="bold" lengthAdjust="spacingAndGlyphs" textLength="40" x="584.5" y="703">FAILED</text><text fill="#000000" font-family="sans-serif" font-size="11" font-weight="bold" lengthAdjust="spacingAndGlyphs" textLength="101" x="584.5" y="715.9551">FAILED_NOTIFIED</text><text fill="#000000" font-family="sans-serif" font-size="11" font-weight="bold" lengthAdjust="spacingAndGlyphs" textLength="67" x="584.5" y="728.9102">CANCELLED</text><text fill="#000000" font-family="sans-serif" font-size="11" font-weight="bold" lengthAdjust="spacingAndGlyphs" textLength="128" x="584.5" y="741.8652">CANCELLED_NOTIFIED</text><text fill="#000000" font-family="sans-serif" font-size="11" font-weight="bold" lengthAdjust="spacingAndGlyphs" textLength="49" x="584.5" y="754.8203">SUCCESS</text><text fill="#000000" font-family="sans-serif" font-size="11" font-weight="bold" lengthAdjust="spacingAndGlyphs" textLength="110" x="584.5" y="767.7754">SUCCESS_NOTIFIED</text><line style="stroke: #A80036; stroke-width: 1.5;" x1="579.5" x2="717.5" y1="774.0957" y2="774.0957"/><!--class Builder.WhenType--><rect fill="#FEFECE" filter="url(#fsp6efitl6hg6)" height="73.9102" id="Builder.WhenType" style="stroke: #A80036; stroke-width: 1.5;" width="92" x="1160" y="592"/><ellipse cx="1175" cy="608" fill="#EB937F" rx="11" ry="11" style="stroke: #A80036; stroke-width: 1.0;"/><path d="M1179.1143,614 L1171.3945,614 L1171.3945,601.6069 L1179.1143,601.6069 L1179.1143,603.7651 L1173.8433,603.7651 L1173.8433,606.438 L1178.6162,606.438 L1178.6162,608.5962 L1173.8433,608.5962 L1173.8433,611.8418 L1179.1143,611.8418 Z "/><text fill="#000000" font-family="sans-serif" font-size="12" lengthAdjust="spacingAndGlyphs" textLength="60" x="1189" y="612.5352">WhenType</text><line style="stroke: #A80036; stroke-width: 1.5;" x1="1161" x2="1251" y1="624" y2="624"/><text fill="#000000" font-family="sans-serif" font-size="11" font-weight="bold" lengthAdjust="spacingAndGlyphs" textLength="48" x="1166" y="638.6348">MANUAL</text><text fill="#000000" font-family="sans-serif" font-size="11" font-weight="bold" lengthAdjust="spacingAndGlyphs" textLength="33" x="1166" y="651.5898">AUTO</text><line style="stroke: #A80036; stroke-width: 1.5;" x1="1161" x2="1251" y1="657.9102" y2="657.9102"/><!--class Builder.PipelineFromType--><rect fill="#FEFECE" filter="url(#fsp6efitl6hg6)" height="60.9551" id="Builder.PipelineFromType" style="stroke: #A80036; stroke-width: 1.5;" width="135" x="1575" y="433.5"/><ellipse cx="1590" cy="449.5" fill="#EB937F" rx="11" ry="11" style="stroke: #A80036; stroke-width: 1.0;"/><path d="M1594.1143,455.5 L1586.3945,455.5 L1586.3945,443.1069 L1594.1143,443.1069 L1594.1143,445.2651 L1588.8433,445.2651 L1588.8433,447.938 L1593.6162,447.938 L1593.6162,450.0962 L1588.8433,450.0962 L1588.8433,453.3418 L1594.1143,453.3418 Z "/><text fill="#000000" font-family="sans-serif" font-size="12" lengthAdjust="spacingAndGlyphs" textLength="103" x="1604" y="454.0352">PipelineFromType</text><line style="stroke: #A80036; stroke-width: 1.5;" x1="1576" x2="1709" y1="465.5" y2="465.5"/><text fill="#000000" font-family="sans-serif" font-size="11" font-weight="bold" lengthAdjust="spacingAndGlyphs" textLength="74" x="1581" y="480.1348">PUSH_EVENT</text><line style="stroke: #A80036; stroke-width: 1.5;" x1="1576" x2="1709" y1="486.4551" y2="486.4551"/><!--class Builder.Stage--><rect fill="#FEFECE" filter="url(#fsp6efitl6hg6)" height="211.4609" id="Builder.Stage" style="stroke: #A80036; stroke-width: 1.5;" width="151" x="573" y="371.5"/><ellipse cx="628.75" cy="387.5" fill="#FF7700" rx="11" ry="11" style="stroke: #A80036; stroke-width: 1.0;"/><path d="M628.2334,388.063 Q626.3823,387.3574 625.7266,386.5813 Q625.0708,385.8052 625.0708,384.4937 Q625.0708,382.8086 626.1499,381.8457 Q627.229,380.8828 629.1133,380.8828 Q629.9683,380.8828 630.8232,381.0779 Q631.6782,381.2729 632.5166,381.6548 L632.5166,384.0454 Q631.728,383.4893 630.9146,383.1987 Q630.1011,382.9082 629.3042,382.9082 Q628.416,382.9082 627.9429,383.2651 Q627.4697,383.6221 627.4697,384.2861 Q627.4697,384.8008 627.8142,385.137 Q628.1587,385.4731 629.2544,385.8799 L630.3086,386.2783 Q631.8027,386.8262 632.5083,387.731 Q633.2139,388.6357 633.2139,390.0137 Q633.2139,391.8896 632.1057,392.8152 Q630.9976,393.7407 628.7563,393.7407 Q627.835,393.7407 626.9094,393.5208 Q625.9839,393.3008 625.1206,392.8691 L625.1206,390.3374 Q626.1001,391.0347 627.0173,391.375 Q627.9346,391.7153 628.8311,391.7153 Q629.7358,391.7153 630.2339,391.3044 Q630.7319,390.8936 630.7319,390.1548 Q630.7319,389.5986 630.3999,389.1794 Q630.0679,388.7603 629.437,388.5195 Z "/><text fill="#000000" font-family="sans-serif" font-size="12" lengthAdjust="spacingAndGlyphs" textLength="31" x="649.25" y="392.0352">Stage</text><line style="stroke: #A80036; stroke-width: 1.5;" x1="574" x2="723" y1="403.5" y2="403.5"/><polygon fill="none" points="584,410.4775,588,414.4775,584,418.4775,580,414.4775" style="stroke: #B38D22; stroke-width: 1.0;"/><text fill="#000000" font-family="sans-serif" font-size="11" lengthAdjust="spacingAndGlyphs" textLength="13" x="593" y="418.1348">id:</text><text fill="#000000" font-family="sans-serif" font-size="11" font-weight="bold" lengthAdjust="spacingAndGlyphs" textLength="25" x="609" y="418.1348">uuid</text><ellipse cx="584" cy="428.4326" fill="none" rx="3" ry="3" style="stroke: #038048; stroke-width: 1.0;"/><text fill="#000000" font-family="sans-serif" font-size="11" lengthAdjust="spacingAndGlyphs" textLength="63" x="593" y="431.0898">inserted_at:</text><text fill="#000000" font-family="sans-serif" font-size="11" font-weight="bold" lengthAdjust="spacingAndGlyphs" textLength="59" x="659" y="431.0898">timestamp</text><ellipse cx="584" cy="441.3877" fill="none" rx="3" ry="3" style="stroke: #038048; stroke-width: 1.0;"/><text fill="#000000" font-family="sans-serif" font-size="11" lengthAdjust="spacingAndGlyphs" textLength="63" x="593" y="444.0449">updated_at:</text><text fill="#000000" font-family="sans-serif" font-size="11" font-weight="bold" lengthAdjust="spacingAndGlyphs" textLength="59" x="659" y="444.0449">timestamp</text><line style="stroke: #A80036; stroke-width: 1.0; stroke-dasharray: 1.0,2.0;" x1="574" x2="723" y1="450.3652" y2="450.3652"/><ellipse cx="584" cy="462.3428" fill="#000000" rx="3" ry="3" style="stroke: #000000; stroke-width: 1.0;"/><text fill="#000000" font-family="sans-serif" font-size="11" lengthAdjust="spacingAndGlyphs" textLength="45" x="593" y="465">pipeline:</text><text fill="#000000" font-family="sans-serif" font-size="11" font-style="italic" lengthAdjust="spacingAndGlyphs" textLength="41" x="641" y="465">Pipeline</text><ellipse cx="584" cy="475.2979" fill="#000000" rx="3" ry="3" style="stroke: #000000; stroke-width: 1.0;"/><text fill="#000000" font-family="sans-serif" font-size="11" lengthAdjust="spacingAndGlyphs" textLength="31" x="593" y="477.9551">when:</text><text fill="#000000" font-family="sans-serif" font-size="11" font-style="italic" lengthAdjust="spacingAndGlyphs" textLength="55" x="627" y="477.9551">WhenType</text><line style="stroke: #A80036; stroke-width: 1.0; stroke-dasharray: 1.0,2.0;" x1="574" x2="723" y1="484.2754" y2="484.2754"/><ellipse cx="584" cy="496.2529" fill="none" rx="3" ry="3" style="stroke: #038048; stroke-width: 1.0;"/><text fill="#000000" font-family="sans-serif" font-size="11" lengthAdjust="spacingAndGlyphs" textLength="67" x="593" y="498.9102">name: string</text><ellipse cx="584" cy="509.208" fill="none" rx="3" ry="3" style="stroke: #038048; stroke-width: 1.0;"/><text fill="#000000" font-family="sans-serif" font-size="11" lengthAdjust="spacingAndGlyphs" textLength="106" x="593" y="511.8652">stage_group: string</text><ellipse cx="584" cy="522.1631" fill="none" rx="3" ry="3" style="stroke: #038048; stroke-width: 1.0;"/><text fill="#000000" font-family="sans-serif" font-size="11" lengthAdjust="spacingAndGlyphs" textLength="82" x="593" y="524.8203">except: [string]</text><ellipse cx="584" cy="535.1182" fill="none" rx="3" ry="3" style="stroke: #038048; stroke-width: 1.0;"/><text fill="#000000" font-family="sans-serif" font-size="11" lengthAdjust="spacingAndGlyphs" textLength="69" x="593" y="537.7754">only: [string]</text><ellipse cx="584" cy="548.0732" fill="none" rx="3" ry="3" style="stroke: #038048; stroke-width: 1.0;"/><text fill="#000000" font-family="sans-serif" font-size="11" lengthAdjust="spacingAndGlyphs" textLength="94" x="593" y="550.7305">config_file: string</text><ellipse cx="584" cy="561.0283" fill="none" rx="3" ry="3" style="stroke: #038048; stroke-width: 1.0;"/><text fill="#000000" font-family="sans-serif" font-size="11" lengthAdjust="spacingAndGlyphs" textLength="63" x="593" y="563.6855">config: map</text><ellipse cx="584" cy="573.9834" fill="none" rx="3" ry="3" style="stroke: #038048; stroke-width: 1.0;"/><text fill="#000000" font-family="sans-serif" font-size="11" lengthAdjust="spacingAndGlyphs" textLength="86" x="593" y="576.6406">cloudbuild: map</text><!--class Builder.Job--><rect fill="#FEFECE" filter="url(#fsp6efitl6hg6)" height="133.7305" id="Builder.Job" style="stroke: #A80036; stroke-width: 1.5;" width="243" x="207" y="410"/><ellipse cx="314.75" cy="426" fill="#FF7700" rx="11" ry="11" style="stroke: #A80036; stroke-width: 1.0;"/><path d="M314.2334,426.563 Q312.3823,425.8574 311.7266,425.0813 Q311.0708,424.3052 311.0708,422.9937 Q311.0708,421.3086 312.1499,420.3457 Q313.229,419.3828 315.1133,419.3828 Q315.9683,419.3828 316.8232,419.5779 Q317.6782,419.7729 318.5166,420.1548 L318.5166,422.5454 Q317.728,421.9893 316.9146,421.6987 Q316.1011,421.4082 315.3042,421.4082 Q314.416,421.4082 313.9429,421.7651 Q313.4697,422.1221 313.4697,422.7861 Q313.4697,423.3008 313.8142,423.637 Q314.1587,423.9731 315.2544,424.3799 L316.3086,424.7783 Q317.8027,425.3262 318.5083,426.231 Q319.2139,427.1357 319.2139,428.5137 Q319.2139,430.3896 318.1057,431.3152 Q316.9976,432.2407 314.7563,432.2407 Q313.835,432.2407 312.9094,432.0208 Q311.9839,431.8008 311.1206,431.3691 L311.1206,428.8374 Q312.1001,429.5347 313.0173,429.875 Q313.9346,430.2153 314.8311,430.2153 Q315.7358,430.2153 316.2339,429.8044 Q316.7319,429.3936 316.7319,428.6548 Q316.7319,428.0986 316.3999,427.6794 Q316.0679,427.2603 315.437,427.0195 Z "/><text fill="#000000" font-family="sans-serif" font-size="12" lengthAdjust="spacingAndGlyphs" textLength="19" x="335.25" y="430.5352">Job</text><line style="stroke: #A80036; stroke-width: 1.5;" x1="208" x2="449" y1="442" y2="442"/><polygon fill="none" points="218,448.9775,222,452.9775,218,456.9775,214,452.9775" style="stroke: #B38D22; stroke-width: 1.0;"/><text fill="#000000" font-family="sans-serif" font-size="11" lengthAdjust="spacingAndGlyphs" textLength="13" x="227" y="456.6348">id:</text><text fill="#000000" font-family="sans-serif" font-size="11" font-weight="bold" lengthAdjust="spacingAndGlyphs" textLength="25" x="243" y="456.6348">uuid</text><ellipse cx="218" cy="466.9326" fill="none" rx="3" ry="3" style="stroke: #038048; stroke-width: 1.0;"/><text fill="#000000" font-family="sans-serif" font-size="11" lengthAdjust="spacingAndGlyphs" textLength="63" x="227" y="469.5898">inserted_at:</text><text fill="#000000" font-family="sans-serif" font-size="11" font-weight="bold" lengthAdjust="spacingAndGlyphs" textLength="59" x="293" y="469.5898">timestamp</text><ellipse cx="218" cy="479.8877" fill="none" rx="3" ry="3" style="stroke: #038048; stroke-width: 1.0;"/><text fill="#000000" font-family="sans-serif" font-size="11" lengthAdjust="spacingAndGlyphs" textLength="63" x="227" y="482.5449">updated_at:</text><text fill="#000000" font-family="sans-serif" font-size="11" font-weight="bold" lengthAdjust="spacingAndGlyphs" textLength="59" x="293" y="482.5449">timestamp</text><line style="stroke: #A80036; stroke-width: 1.0; stroke-dasharray: 1.0,2.0;" x1="208" x2="449" y1="488.8652" y2="488.8652"/><ellipse cx="218" cy="500.8428" fill="#000000" rx="3" ry="3" style="stroke: #000000; stroke-width: 1.0;"/><text fill="#000000" font-family="sans-serif" font-size="11" lengthAdjust="spacingAndGlyphs" textLength="89" x="227" y="503.5">gcloud_build_id:</text><text fill="#000000" font-family="sans-serif" font-size="11" font-style="italic" lengthAdjust="spacingAndGlyphs" textLength="125" x="319" y="503.5">GoogleCloudBuild.Build</text><ellipse cx="218" cy="513.7979" fill="#000000" rx="3" ry="3" style="stroke: #000000; stroke-width: 1.0;"/><text fill="#000000" font-family="sans-serif" font-size="11" lengthAdjust="spacingAndGlyphs" textLength="32" x="227" y="516.4551">stage:</text><text fill="#000000" font-family="sans-serif" font-size="11" font-style="italic" lengthAdjust="spacingAndGlyphs" textLength="29" x="262" y="516.4551">Stage</text><line style="stroke: #A80036; stroke-width: 1.0; stroke-dasharray: 1.0,2.0;" x1="208" x2="449" y1="522.7754" y2="522.7754"/><ellipse cx="218" cy="534.7529" fill="#000000" rx="3" ry="3" style="stroke: #000000; stroke-width: 1.0;"/><text fill="#000000" font-family="sans-serif" font-size="11" lengthAdjust="spacingAndGlyphs" textLength="36" x="227" y="537.4102">status:</text><text fill="#000000" font-family="sans-serif" font-size="11" font-style="italic" lengthAdjust="spacingAndGlyphs" textLength="50" x="266" y="537.4102">JobStatus</text><!--class Sources.Repository--><rect fill="#FEFECE" filter="url(#fsp6efitl6hg6)" height="159.6406" id="Sources.Repository" style="stroke: #A80036; stroke-width: 1.5;" width="151" x="1363" y="55"/><ellipse cx="1404.1" cy="71" fill="#FF7700" rx="11" ry="11" style="stroke: #A80036; stroke-width: 1.0;"/><path d="M1403.5834,71.563 Q1401.7323,70.8574 1401.0766,70.0813 Q1400.4208,69.3052 1400.4208,67.9937 Q1400.4208,66.3086 1401.4999,65.3457 Q1402.579,64.3828 1404.4633,64.3828 Q1405.3183,64.3828 1406.1732,64.5779 Q1407.0282,64.7729 1407.8666,65.1548 L1407.8666,67.5454 Q1407.078,66.9893 1406.2646,66.6987 Q1405.4511,66.4082 1404.6542,66.4082 Q1403.766,66.4082 1403.2929,66.7651 Q1402.8197,67.1221 1402.8197,67.7861 Q1402.8197,68.3008 1403.1642,68.637 Q1403.5087,68.9731 1404.6044,69.3799 L1405.6586,69.7783 Q1407.1527,70.3262 1407.8583,71.231 Q1408.5639,72.1357 1408.5639,73.5137 Q1408.5639,75.3896 1407.4557,76.3152 Q1406.3476,77.2407 1404.1063,77.2407 Q1403.185,77.2407 1402.2594,77.0208 Q1401.3339,76.8008 1400.4706,76.3691 L1400.4706,73.8374 Q1401.4501,74.5347 1402.3673,74.875 Q1403.2846,75.2153 1404.1811,75.2153 Q1405.0858,75.2153 1405.5839,74.8044 Q1406.0819,74.3936 1406.0819,73.6548 Q1406.0819,73.0986 1405.7499,72.6794 Q1405.4179,72.2603 1404.787,72.0195 Z "/><text fill="#000000" font-family="sans-serif" font-size="12" lengthAdjust="spacingAndGlyphs" textLength="61" x="1423.9" y="75.5352">Repository</text><line style="stroke: #A80036; stroke-width: 1.5;" x1="1364" x2="1513" y1="87" y2="87"/><polygon fill="none" points="1374,93.9775,1378,97.9775,1374,101.9775,1370,97.9775" style="stroke: #B38D22; stroke-width: 1.0;"/><text fill="#000000" font-family="sans-serif" font-size="11" lengthAdjust="spacingAndGlyphs" textLength="13" x="1383" y="101.6348">id:</text><text fill="#000000" font-family="sans-serif" font-size="11" font-weight="bold" lengthAdjust="spacingAndGlyphs" textLength="25" x="1399" y="101.6348">uuid</text><ellipse cx="1374" cy="111.9326" fill="none" rx="3" ry="3" style="stroke: #038048; stroke-width: 1.0;"/><text fill="#000000" font-family="sans-serif" font-size="11" lengthAdjust="spacingAndGlyphs" textLength="63" x="1383" y="114.5898">inserted_at:</text><text fill="#000000" font-family="sans-serif" font-size="11" font-weight="bold" lengthAdjust="spacingAndGlyphs" textLength="59" x="1449" y="114.5898">timestamp</text><ellipse cx="1374" cy="124.8877" fill="none" rx="3" ry="3" style="stroke: #038048; stroke-width: 1.0;"/><text fill="#000000" font-family="sans-serif" font-size="11" lengthAdjust="spacingAndGlyphs" textLength="63" x="1383" y="127.5449">updated_at:</text><text fill="#000000" font-family="sans-serif" font-size="11" font-weight="bold" lengthAdjust="spacingAndGlyphs" textLength="59" x="1449" y="127.5449">timestamp</text><line style="stroke: #A80036; stroke-width: 1.0; stroke-dasharray: 1.0,2.0;" x1="1364" x2="1513" y1="133.8652" y2="133.8652"/><ellipse cx="1374" cy="145.8428" fill="#000000" rx="3" ry="3" style="stroke: #000000; stroke-width: 1.0;"/><text fill="#000000" font-family="sans-serif" font-size="11" lengthAdjust="spacingAndGlyphs" textLength="51" x="1383" y="148.5">pipelines:</text><text fill="#000000" font-family="sans-serif" font-size="11" font-style="italic" lengthAdjust="spacingAndGlyphs" textLength="70" x="1437" y="148.5">Build.Pipeline</text><line style="stroke: #A80036; stroke-width: 1.0; stroke-dasharray: 1.0,2.0;" x1="1364" x2="1513" y1="154.8203" y2="154.8203"/><ellipse cx="1374" cy="166.7979" fill="none" rx="3" ry="3" style="stroke: #038048; stroke-width: 1.0;"/><text fill="#000000" font-family="sans-serif" font-size="11" lengthAdjust="spacingAndGlyphs" textLength="106" x="1383" y="169.4551">gcloud_repo: string</text><ellipse cx="1374" cy="179.7529" fill="none" rx="3" ry="3" style="stroke: #038048; stroke-width: 1.0;"/><text fill="#000000" font-family="sans-serif" font-size="11" lengthAdjust="spacingAndGlyphs" textLength="104" x="1383" y="182.4102">github_repo: string</text><ellipse cx="1374" cy="192.708" fill="none" rx="3" ry="3" style="stroke: #038048; stroke-width: 1.0;"/><text fill="#000000" font-family="sans-serif" font-size="11" lengthAdjust="spacingAndGlyphs" textLength="112" x="1383" y="195.3652">github_secret: string</text><ellipse cx="1374" cy="205.6631" fill="none" rx="3" ry="3" style="stroke: #038048; stroke-width: 1.0;"/><text fill="#000000" font-family="sans-serif" font-size="11" lengthAdjust="spacingAndGlyphs" textLength="109" x="1383" y="208.3203">github_token: string</text><!--class GoogleCloudBuild.Build--><rect fill="#FEFECE" filter="url(#fsp6efitl6hg6)" height="60.9551" id="GoogleCloudBuild.Build" style="stroke: #A80036; stroke-width: 1.5;" width="74" x="41.5" y="139.5"/><ellipse cx="62.8" cy="155.5" fill="#ADD1B2" rx="11" ry="11" style="stroke: #A80036; stroke-width: 1.0;"/><path d="M65.7731,161.1431 Q65.1921,161.4419 64.5529,161.5913 Q63.9138,161.7407 63.2082,161.7407 Q60.7014,161.7407 59.3815,160.0889 Q58.0617,158.437 58.0617,155.3159 Q58.0617,152.1865 59.3815,150.5347 Q60.7014,148.8828 63.2082,148.8828 Q63.9138,148.8828 64.5612,149.0322 Q65.2087,149.1816 65.7731,149.4805 L65.7731,152.2031 Q65.1423,151.6221 64.5488,151.3523 Q63.9553,151.0825 63.3244,151.0825 Q61.9797,151.0825 61.2949,152.1492 Q60.6101,153.2158 60.6101,155.3159 Q60.6101,157.4077 61.2949,158.4744 Q61.9797,159.541 63.3244,159.541 Q63.9553,159.541 64.5488,159.2712 Q65.1423,159.0015 65.7731,158.4204 Z "/><text fill="#000000" font-family="sans-serif" font-size="12" lengthAdjust="spacingAndGlyphs" textLength="28" x="78.2" y="160.0352">Build</text><line style="stroke: #A80036; stroke-width: 1.5;" x1="42.5" x2="114.5" y1="171.5" y2="171.5"/><ellipse cx="52.5" cy="183.4775" fill="none" rx="3" ry="3" style="stroke: #038048; stroke-width: 1.0;"/><text fill="#000000" font-family="sans-serif" font-size="11" lengthAdjust="spacingAndGlyphs" textLength="48" x="61.5" y="186.1348">id: string</text><line style="stroke: #A80036; stroke-width: 1.5;" x1="42.5" x2="114.5" y1="192.4551" y2="192.4551"/><!--class GoogleCloudBuild.Source--><rect fill="#FEFECE" filter="url(#fsp6efitl6hg6)" height="60.9551" id="GoogleCloudBuild.Source" style="stroke: #A80036; stroke-width: 1.5;" width="93" x="32" y="43.5"/><ellipse cx="57.35" cy="59.5" fill="#ADD1B2" rx="11" ry="11" style="stroke: #A80036; stroke-width: 1.0;"/><path d="M60.3231,65.1431 Q59.7421,65.4419 59.1029,65.5913 Q58.4638,65.7407 57.7582,65.7407 Q55.2514,65.7407 53.9315,64.0889 Q52.6117,62.437 52.6117,59.3159 Q52.6117,56.1865 53.9315,54.5347 Q55.2514,52.8828 57.7582,52.8828 Q58.4638,52.8828 59.1112,53.0322 Q59.7587,53.1816 60.3231,53.4805 L60.3231,56.2031 Q59.6923,55.6221 59.0988,55.3523 Q58.5053,55.0825 57.8744,55.0825 Q56.5297,55.0825 55.8449,56.1492 Q55.1601,57.2158 55.1601,59.3159 Q55.1601,61.4077 55.8449,62.4744 Q56.5297,63.541 57.8744,63.541 Q58.5053,63.541 59.0988,63.2712 Q59.6923,63.0015 60.3231,62.4204 Z "/><text fill="#000000" font-family="sans-serif" font-size="12" lengthAdjust="spacingAndGlyphs" textLength="38" x="73.65" y="64.0352">Source</text><line style="stroke: #A80036; stroke-width: 1.5;" x1="33" x2="124" y1="75.5" y2="75.5"/><ellipse cx="43" cy="87.4775" fill="none" rx="3" ry="3" style="stroke: #038048; stroke-width: 1.0;"/><text fill="#000000" font-family="sans-serif" font-size="11" lengthAdjust="spacingAndGlyphs" textLength="67" x="52" y="90.1348">name: string</text><line style="stroke: #A80036; stroke-width: 1.5;" x1="33" x2="124" y1="96.4551" y2="96.4551"/><!--class GithubService.User--><rect fill="#FEFECE" filter="url(#fsp6efitl6hg6)" height="60.9551" id="GithubService.User" style="stroke: #A80036; stroke-width: 1.5;" width="107" x="595" y="229.5"/><ellipse cx="632.05" cy="245.5" fill="#ADD1B2" rx="11" ry="11" style="stroke: #A80036; stroke-width: 1.0;"/><path d="M635.0231,251.1431 Q634.4421,251.4419 633.8029,251.5913 Q633.1638,251.7407 632.4582,251.7407 Q629.9514,251.7407 628.6315,250.0889 Q627.3117,248.437 627.3117,245.3159 Q627.3117,242.1865 628.6315,240.5347 Q629.9514,238.8828 632.4582,238.8828 Q633.1638,238.8828 633.8112,239.0322 Q634.4587,239.1816 635.0231,239.4805 L635.0231,242.2031 Q634.3923,241.6221 633.7988,241.3523 Q633.2053,241.0825 632.5744,241.0825 Q631.2297,241.0825 630.5449,242.1492 Q629.8601,243.2158 629.8601,245.3159 Q629.8601,247.4077 630.5449,248.4744 Q631.2297,249.541 632.5744,249.541 Q633.2053,249.541 633.7988,249.2712 Q634.3923,249.0015 635.0231,248.4204 Z "/><text fill="#000000" font-family="sans-serif" font-size="12" lengthAdjust="spacingAndGlyphs" textLength="26" x="650.95" y="250.0352">User</text><line style="stroke: #A80036; stroke-width: 1.5;" x1="596" x2="701" y1="261.5" y2="261.5"/><ellipse cx="606" cy="273.4775" fill="none" rx="3" ry="3" style="stroke: #038048; stroke-width: 1.0;"/><text fill="#000000" font-family="sans-serif" font-size="11" lengthAdjust="spacingAndGlyphs" textLength="81" x="615" y="276.1348">node_id: string</text><line style="stroke: #A80036; stroke-width: 1.5;" x1="596" x2="701" y1="282.4551" y2="282.4551"/><!--class GithubService.Repository--><rect fill="#FEFECE" filter="url(#fsp6efitl6hg6)" height="60.9551" id="GithubService.Repository" style="stroke: #A80036; stroke-width: 1.5;" width="93" x="602" y="133.5"/><ellipse cx="617" cy="149.5" fill="#ADD1B2" rx="11" ry="11" style="stroke: #A80036; stroke-width: 1.0;"/><path d="M619.9731,155.1431 Q619.3921,155.4419 618.7529,155.5913 Q618.1138,155.7407 617.4082,155.7407 Q614.9014,155.7407 613.5815,154.0889 Q612.2617,152.437 612.2617,149.3159 Q612.2617,146.1865 613.5815,144.5347 Q614.9014,142.8828 617.4082,142.8828 Q618.1138,142.8828 618.7612,143.0322 Q619.4087,143.1816 619.9731,143.4805 L619.9731,146.2031 Q619.3423,145.6221 618.7488,145.3523 Q618.1553,145.0825 617.5244,145.0825 Q616.1797,145.0825 615.4949,146.1492 Q614.8101,147.2158 614.8101,149.3159 Q614.8101,151.4077 615.4949,152.4744 Q616.1797,153.541 617.5244,153.541 Q618.1553,153.541 618.7488,153.2712 Q619.3423,153.0015 619.9731,152.4204 Z "/><text fill="#000000" font-family="sans-serif" font-size="12" lengthAdjust="spacingAndGlyphs" textLength="61" x="631" y="154.0352">Repository</text><line style="stroke: #A80036; stroke-width: 1.5;" x1="603" x2="694" y1="165.5" y2="165.5"/><ellipse cx="613" cy="177.4775" fill="none" rx="3" ry="3" style="stroke: #038048; stroke-width: 1.0;"/><text fill="#000000" font-family="sans-serif" font-size="11" lengthAdjust="spacingAndGlyphs" textLength="53" x="622" y="180.1348">url: string</text><line style="stroke: #A80036; stroke-width: 1.5;" x1="603" x2="694" y1="186.4551" y2="186.4551"/><!--class Subtitles--><rect fill="#FEFECE" filter="url(#fsp6efitl6hg6)" height="86.8652" id="Subtitles" style="stroke: #A80036; stroke-width: 1.5;" width="99" x="29" y="235.5"/><ellipse cx="52.55" cy="251.5" fill="#FF7700" rx="11" ry="11" style="stroke: #A80036; stroke-width: 1.0;"/><path d="M48.4777,247.2651 L48.4777,245.1069 L55.8571,245.1069 L55.8571,247.2651 L53.3918,247.2651 L53.3918,255.3418 L55.8571,255.3418 L55.8571,257.5 L48.4777,257.5 L48.4777,255.3418 L50.9431,255.3418 L50.9431,247.2651 Z "/><text fill="#000000" font-family="sans-serif" font-size="12" lengthAdjust="spacingAndGlyphs" textLength="48" x="68.45" y="256.0352">Subtitles</text><line style="stroke: #A80036; stroke-width: 1.5;" x1="30" x2="127" y1="267.5" y2="267.5"/><polygon fill="none" points="40,274.4775,44,278.4775,40,282.4775,36,278.4775" style="stroke: #B38D22; stroke-width: 1.0;"/><text fill="#000000" font-family="sans-serif" font-size="11" lengthAdjust="spacingAndGlyphs" textLength="10" x="49" y="282.1348">id</text><ellipse cx="40" cy="292.4326" fill="none" rx="3" ry="3" style="stroke: #038048; stroke-width: 1.0;"/><text fill="#000000" font-family="sans-serif" font-size="11" lengthAdjust="spacingAndGlyphs" textLength="29" x="49" y="295.0898">fields</text><ellipse cx="40" cy="305.3877" fill="#000000" rx="3" ry="3" style="stroke: #000000; stroke-width: 1.0;"/><text fill="#000000" font-family="sans-serif" font-size="11" lengthAdjust="spacingAndGlyphs" textLength="73" x="49" y="308.0449">relations field</text><line style="stroke: #A80036; stroke-width: 1.5;" x1="30" x2="127" y1="314.3652" y2="314.3652"/><!--link Accounts.User to Builder.Pipeline--><path d="M936.3214,303.2076 C987.3719,333.6458 1055.1198,374.0396 1109.9401,406.7255 " fill="none" id="Accounts.User-Builder.Pipeline" style="stroke: #A80036; stroke-width: 1.0;"/><text fill="#000000" font-family="sans-serif" font-size="13" lengthAdjust="spacingAndGlyphs" textLength="22" x="944.0539" y="320.4981">1..*</text><text fill="#000000" font-family="sans-serif" font-size="13" lengthAdjust="spacingAndGlyphs" textLength="22" x="1080.0779" y="415.6664">0..*</text><!--link Builder.Pipeline to Sources.Repository--><path d="M1272.0033,370.6018 C1306.6404,321.5885 1348.6469,262.147 1381.8007,215.2326 " fill="none" id="Builder.Pipeline-Sources.Repository" style="stroke: #A80036; stroke-width: 1.0;"/><text fill="#000000" font-family="sans-serif" font-size="13" lengthAdjust="spacingAndGlyphs" textLength="22" x="1254.3864" y="360.1601">1..*</text><text fill="#000000" font-family="sans-serif" font-size="13" lengthAdjust="spacingAndGlyphs" textLength="22" x="1354.1944" y="235.0941">0..*</text><!--link Builder.Pipeline to Builder.PipelineFromType--><path d="M1302.0618,464 C1382.7092,464 1496.1985,464 1569.5547,464 " fill="none" id="Builder.Pipeline-Builder.PipelineFromType" style="stroke: #A80036; stroke-width: 1.0;"/><rect fill="#FFFFFF" height="10" style="stroke: #A80036; stroke-width: 1.5;" width="10" x="1569.766" y="459"/><!--link Builder.Stage to Builder.Pipeline--><path d="M724.2671,475.2332 C824.2999,472.9006 1000.5047,468.7918 1109.8252,466.2426 " fill="none" id="Builder.Stage-Builder.Pipeline" style="stroke: #A80036; stroke-width: 1.0;"/><text fill="#000000" font-family="sans-serif" font-size="13" lengthAdjust="spacingAndGlyphs" textLength="22" x="731.9948" y="488.3055">1..*</text><text fill="#000000" font-family="sans-serif" font-size="13" lengthAdjust="spacingAndGlyphs" textLength="22" x="1079.9546" y="479.5543">0..*</text><!--link Builder.Stage to Builder.WhenType--><path d="M724.2671,497.6576 C839.62,529.1081 1056.2635,588.175 1154.8328,615.0495 " fill="none" id="Builder.Stage-Builder.WhenType" style="stroke: #A80036; stroke-width: 1.0;"/><rect fill="#FFFFFF" height="10" style="stroke: #A80036; stroke-width: 1.5;" width="10" x="1154.7229" y="611.3827"/><!--link Builder.Job to Builder.JobStatus--><path d="M424.9445,544.2098 C472.8116,577.5671 529.7408,617.2397 574.1704,648.2016 " fill="none" id="Builder.Job-Builder.JobStatus" style="stroke: #A80036; stroke-width: 1.0;"/><rect fill="#FFFFFF" height="10" style="stroke: #A80036; stroke-width: 1.5;" width="10" x="573.4303" y="646.1702"/><!--link Builder.Job to Builder.Stage--><path d="M450.3911,477 C491.5447,477 536.2697,477 572.7928,477 " fill="none" id="Builder.Job-Builder.Stage" style="stroke: #A80036; stroke-width: 1.0;"/><text fill="#000000" font-family="sans-serif" font-size="13" lengthAdjust="spacingAndGlyphs" textLength="22" x="458.0739" y="490.0187">1..*</text><text fill="#000000" font-family="sans-serif" font-size="13" lengthAdjust="spacingAndGlyphs" textLength="22" x="543.0704" y="490.2296">0..*</text><!--link GoogleCloudBuild.Build to Builder.Job--><path d="M119.8491,193.4335 C130.6249,200.5609 141.7867,208.9329 151,218 C209.1817,275.2582 260.0321,354.1532 292.2198,409.7791 " fill="none" id="GoogleCloudBuild.Build-Builder.Job" style="stroke: #A80036; stroke-width: 1.0;"/><polygon fill="#A80036" points="115.5838,190.6623,120.9515,198.9199,119.7766,193.3864,125.3101,192.2114,115.5838,190.6623" style="stroke: #A80036; stroke-width: 1.0;"/><!--link GoogleCloudBuild.Source to Sources.Repository--><path d="M130.1131,70.4025 C180.6439,67.1939 259.8263,63 328.5,63 C328.5,63 328.5,63 1206,63 C1260.0874,63 1318.2124,81 1362.8155,99 " fill="none" id="GoogleCloudBuild.Source-Sources.Repository" style="stroke: #A80036; stroke-width: 1.0;"/><polygon fill="#A80036" points="125.0099,70.7294,134.2473,74.1457,129.9997,70.4097,133.7357,66.1621,125.0099,70.7294" style="stroke: #A80036; stroke-width: 1.0;"/><text fill="#000000" font-family="sans-serif" font-size="13" lengthAdjust="spacingAndGlyphs" textLength="114" x="591.5" y="59.5684">field: gcloud_repo</text><!--link GithubService.User to Accounts.User--><path d="M707.3221,259.4451 C731.2937,259.2189 759.3095,258.9546 784.7792,258.7143 " fill="none" id="GithubService.User-Accounts.User" style="stroke: #A80036; stroke-width: 1.0;"/><polygon fill="#A80036" points="702.2706,259.4927,711.308,263.4074,707.2704,259.4454,711.2324,255.4078,702.2706,259.4927" style="stroke: #A80036; stroke-width: 1.0;"/><!--link GithubService.Repository to Sources.Repository--><path d="M700.4088,160.9216 C723.8063,159.5987 751.7873,158.1059 777,157 C989.2307,147.6913 1239.9188,140.3539 1362.835,136.9953 " fill="none" id="GithubService.Repository-Sources.Repository" style="stroke: #A80036; stroke-width: 1.0;"/><polygon fill="#A80036" points="695.1819,161.2187,704.3944,164.7016,700.1738,160.935,703.9404,156.7145,695.1819,161.2187" style="stroke: #A80036; stroke-width: 1.0;"/><text fill="#000000" font-family="sans-serif" font-size="13" lengthAdjust="spacingAndGlyphs" textLength="112" x="967" y="142.5684">field: github_repo</text><!--
@startuml
left to right direction

class Subtitles << (I,#FF7700) >> {
  #id
  +fields
  *relations field
}

namespace Accounts #FCF6BD {
  class User << (S,#FF7700) >> {
    #id: <b>uuid</b>
    +inserted_at: <b>timestamp</b>
    +updated_at: <b>timestamp</b>
    ..
    +node_id: string
    +login: string
    +html_url: string
    +avatar_url: string
  }

  User "1..*" - - "0..*" Builder.Pipeline
}

namespace Sources #FCF6BD {
  class Repository << (S,#FF7700) >> {
    #id: <b>uuid</b>
    +inserted_at: <b>timestamp</b>
    +updated_at: <b>timestamp</b>
    ..
    *pipelines: <i>Build.Pipeline</i>
    ..
    +gcloud_repo: string
    +github_repo: string
    +github_secret: string
    +github_token: string
  }
}


namespace Builder #D0F4DE {
  enum JobStatus {
    <b>NEW</b>
    <b>RUNNING</b>
    <b>RUNNING_NOTIFIED</b>
    <b>FAILED</b>
    <b>FAILED_NOTIFIED</b>
    <b>CANCELLED</b>
    <b>CANCELLED_NOTIFIED</b>
    <b>SUCCESS</b>
    <b>SUCCESS_NOTIFIED</b>
  }

  enum WhenType {
    <b>MANUAL</b>
    <b>AUTO</b>
  }

  enum PipelineFromType {
    <b>PUSH_EVENT</b>
  }

  class Pipeline << (S,#FF7700) >> {
    #id: <b>uuid</b>
    +inserted_at: <b>timestamp</b>
    +updated_at: <b>timestamp</b>
    ..
    *repository: <i>Sources.Repository</i>
    *sender: <i>Accounts.User</i>
    *from_type: <i>PipelineFromType</i>
    ..
    +params: map
    +manifest: map
    +stages_groups: array.string
    +stages_errors: map
  }

  Pipeline "1..*" - - "0..*" Sources.Repository
  Pipeline - -# PipelineFromType

  class Stage << (S,#FF7700) >> {
    #id: <b>uuid</b>
    +inserted_at: <b>timestamp</b>
    +updated_at: <b>timestamp</b>
    ..
    *pipeline: <i>Pipeline</i>
    *when: <i>WhenType</i>
    ..
    +name: string
    +stage_group: string
    +except: [string]
    +only: [string]
    +config_file: string
    +config: map
    +cloudbuild: map
  }

  Stage "1..*" - - "0..*" Pipeline
  Stage - -# WhenType

  class Job << (S,#FF7700) >> {
    #id: <b>uuid</b>
    +inserted_at: <b>timestamp</b>
    +updated_at: <b>timestamp</b>
    ..
    *gcloud_build_id: <i>GoogleCloudBuild.Build</i>
    *stage: <i>Stage</i>
    ..
    *status: <i>JobStatus</i>
  }

  Job - -# JobStatus
  Job "1..*" - - "0..*" Stage
}

namespace GoogleCloudBuild #FBBD0A {
  class Build {
    +id: string
  }

  class Source {
    +name: string
  }

  Build <- - Builder.Job
  Source <- - Sources.Repository : "field: gcloud_repo"
}

namespace GithubService #99DBF3 {
  class User {
    +node_id: string
  }

  class Repository {
    +url: string
  }

  User <- - Accounts.User
  Repository <- - Sources.Repository : "field: github_repo"
}
@enduml

PlantUML version 1.2018.10(Sat Aug 25 14:02:59 BRT 2018)
(GPL source distribution)
Java Runtime: Java(TM) SE Runtime Environment
JVM: Java HotSpot(TM) 64-Bit Server VM
Java Version: 10.0.1+10
Operating System: Mac OS X
OS Version: 10.13.6
Default Encoding: UTF-8
Language: en
Country: BR
--></g></svg>